<mxfile host="app.diagrams.net" modified="2021-04-26T08:51:51.206Z" agent="5.0 (Macintosh; Intel Mac OS X 10_15_4) AppleWebKit/537.36 (KHTML, like Gecko) Chrome/89.0.4389.114 Safari/537.36" etag="buB0yelfyTx1PK7TcFye" version="14.6.3" type="github">
  <diagram id="EgPu2-unENHZ7bYF8PeK" name="Page-1">
    <mxGraphModel dx="1639" dy="912" grid="1" gridSize="10" guides="1" tooltips="1" connect="1" arrows="1" fold="1" page="1" pageScale="1" pageWidth="827" pageHeight="1169" math="0" shadow="0">
      <root>
        <mxCell id="0" />
        <mxCell id="1" parent="0" />
        <mxCell id="SRw-rdq7U9tqC3mMRgA0-1" value="&lt;h1&gt;mPOS client request to generate Dynamic QRCode&lt;/h1&gt;&lt;p&gt;&lt;span style=&quot;font-size: 12px&quot;&gt;As Sales Representative&lt;/span&gt;&lt;/p&gt;&lt;p&gt;&lt;span style=&quot;font-size: 12px&quot;&gt;I would like to choose VNPay payment method then the system will automatic generate QRCode while i&#39;m checking out&lt;/span&gt;&lt;/p&gt;&lt;p&gt;&lt;span style=&quot;font-size: 12px&quot;&gt;In order to show QRCode to Customer to make payment via VNPay&lt;/span&gt;&lt;/p&gt;&lt;p&gt;&lt;br&gt;&lt;/p&gt;" style="text;html=1;strokeColor=none;fillColor=none;spacing=5;spacingTop=-20;whiteSpace=wrap;overflow=hidden;rounded=0;" vertex="1" parent="1">
          <mxGeometry x="40" y="120" width="740" height="120" as="geometry" />
        </mxCell>
        <mxCell id="SRw-rdq7U9tqC3mMRgA0-2" value="&lt;div&gt;&lt;span style=&quot;font-size: 12px&quot;&gt;&amp;lt;base-url&amp;gt;/v1/qrcode&lt;/span&gt;&lt;/div&gt;&lt;div&gt;&lt;span&gt;&lt;br&gt;&lt;/span&gt;&lt;/div&gt;&lt;div&gt;&lt;span&gt;POST&lt;/span&gt;&lt;br&gt;&lt;/div&gt;&lt;div&gt;&lt;span&gt;&lt;br&gt;&lt;/span&gt;&lt;/div&gt;&lt;div&gt;&lt;span&gt;```&lt;/span&gt;&lt;/div&gt;&lt;div&gt;&lt;span&gt;{&lt;/span&gt;&lt;br&gt;&lt;/div&gt;&lt;div&gt;&lt;span style=&quot;font-size: 12px&quot;&gt;&amp;nbsp; &amp;nbsp; &quot;merchantCode&quot;: &quot;0300521758&quot;,&lt;/span&gt;&lt;/div&gt;&lt;div&gt;&lt;span style=&quot;font-size: 12px&quot;&gt;&amp;nbsp; &amp;nbsp; &quot;merchantName&quot;: &quot;PNJ&quot;,&lt;/span&gt;&lt;/div&gt;&lt;div&gt;&lt;span style=&quot;font-size: 12px&quot;&gt;&amp;nbsp; &amp;nbsp; &quot;terminalId&quot;: &quot;PNJ02&quot;,&lt;/span&gt;&lt;/div&gt;&lt;div&gt;&lt;span style=&quot;font-size: 12px&quot;&gt;&amp;nbsp; &amp;nbsp; &quot;amount&quot;: &quot;1000000&quot;,&lt;/span&gt;&lt;/div&gt;&lt;div&gt;&lt;span style=&quot;font-size: 12px&quot;&gt;&amp;nbsp; &amp;nbsp; &quot;qrWidth&quot;: 200&lt;/span&gt;&lt;/div&gt;&lt;div&gt;&lt;span style=&quot;font-size: 12px&quot;&gt;}&lt;/span&gt;&lt;/div&gt;&lt;div&gt;&lt;span style=&quot;font-size: 12px&quot;&gt;```&lt;/span&gt;&lt;/div&gt;&lt;div&gt;&lt;br&gt;&lt;/div&gt;" style="text;html=1;align=left;verticalAlign=middle;resizable=0;points=[];autosize=1;strokeColor=none;movable=1;rotatable=1;deletable=1;editable=1;connectable=1;" vertex="1" parent="1">
          <mxGeometry x="42" y="310" width="200" height="190" as="geometry" />
        </mxCell>
        <mxCell id="SRw-rdq7U9tqC3mMRgA0-3" value="" style="shape=image;verticalLabelPosition=bottom;labelBackgroundColor=#ffffff;verticalAlign=top;aspect=fixed;imageAspect=0;image=https://scontent.fsgn5-2.fna.fbcdn.net/v/t1.15752-9/177877722_488422755540386_2769129951626711914_n.jpg?_nc_cat=105&amp;ccb=1-3&amp;_nc_sid=ae9488&amp;_nc_ohc=TtXEZw8UhWUAX_EeU2M&amp;_nc_oc=AQmyyW3XjO2YTGP9SLVEXF99l4QM0hQ9TX9aoIpeG1ev4hpK4y9RY2FypuUqV8GK8vg&amp;_nc_ht=scontent.fsgn5-2.fna&amp;uss=6b5e9a8677a19228&amp;odm=cG5qZ3JvdXAud29ya3BsYWNlLmNvbQ&amp;oe2=60AD05EC&amp;oh=ca3b2e4ab3ff2dd0263abd6258685497&amp;oe=608675A8;" vertex="1" parent="1">
          <mxGeometry x="42" y="530" width="243" height="520" as="geometry" />
        </mxCell>
        <mxCell id="SRw-rdq7U9tqC3mMRgA0-4" value="" style="shape=flexArrow;endArrow=classic;html=1;exitX=1.012;exitY=0.719;exitDx=0;exitDy=0;exitPerimeter=0;entryX=-0.021;entryY=0.14;entryDx=0;entryDy=0;entryPerimeter=0;fillColor=#f8cecc;strokeColor=none;" edge="1" parent="1" source="SRw-rdq7U9tqC3mMRgA0-3" target="SRw-rdq7U9tqC3mMRgA0-6">
          <mxGeometry width="50" height="50" relative="1" as="geometry">
            <mxPoint x="320" y="880" as="sourcePoint" />
            <mxPoint x="450" y="600" as="targetPoint" />
          </mxGeometry>
        </mxCell>
        <mxCell id="SRw-rdq7U9tqC3mMRgA0-5" value="" style="group" vertex="1" connectable="0" parent="1">
          <mxGeometry x="450" y="530" width="253" height="520" as="geometry" />
        </mxCell>
        <mxCell id="SRw-rdq7U9tqC3mMRgA0-6" value="" style="shape=image;verticalLabelPosition=bottom;labelBackgroundColor=#ffffff;verticalAlign=top;aspect=fixed;imageAspect=0;image=https://scontent.fsgn5-5.fna.fbcdn.net/v/t1.15752-9/178576172_322075259276850_1563151602902757826_n.jpg?_nc_cat=108&amp;ccb=1-3&amp;_nc_sid=ae9488&amp;_nc_ohc=aRAGJPIJW3gAX8qMFGl&amp;_nc_ht=scontent.fsgn5-5.fna&amp;uss=f4c936956c533fc1&amp;odm=cG5qZ3JvdXAud29ya3BsYWNlLmNvbQ&amp;oe2=60ACEE09&amp;oh=245c24979d003e99073ed17e1cbce9f4&amp;oe=60867599;" vertex="1" parent="SRw-rdq7U9tqC3mMRgA0-5">
          <mxGeometry x="10" width="243" height="520" as="geometry" />
        </mxCell>
        <mxCell id="SRw-rdq7U9tqC3mMRgA0-7" value="VPPAY QRCODE" style="text;html=1;strokeColor=none;fillColor=none;align=center;verticalAlign=middle;whiteSpace=wrap;rounded=0;fontSize=18;fontStyle=1" vertex="1" parent="SRw-rdq7U9tqC3mMRgA0-5">
          <mxGeometry y="80" width="190" height="20" as="geometry" />
        </mxCell>
        <mxCell id="SRw-rdq7U9tqC3mMRgA0-8" value="" style="rounded=0;whiteSpace=wrap;html=1;fontSize=18;strokeColor=none;" vertex="1" parent="SRw-rdq7U9tqC3mMRgA0-5">
          <mxGeometry x="10" y="160" width="240" height="330" as="geometry" />
        </mxCell>
        <mxCell id="SRw-rdq7U9tqC3mMRgA0-9" value="" style="group" vertex="1" connectable="0" parent="SRw-rdq7U9tqC3mMRgA0-5">
          <mxGeometry x="20" y="160" width="220" height="30" as="geometry" />
        </mxCell>
        <mxCell id="SRw-rdq7U9tqC3mMRgA0-10" value="" style="rounded=1;whiteSpace=wrap;html=1;fontSize=18;fontColor=#000000;" vertex="1" parent="SRw-rdq7U9tqC3mMRgA0-9">
          <mxGeometry width="100" height="30" as="geometry" />
        </mxCell>
        <mxCell id="SRw-rdq7U9tqC3mMRgA0-11" value="" style="rounded=1;whiteSpace=wrap;html=1;fontSize=18;fillColor=#dae8fc;strokeColor=#6c8ebf;" vertex="1" parent="SRw-rdq7U9tqC3mMRgA0-9">
          <mxGeometry x="120" width="100" height="30" as="geometry" />
        </mxCell>
        <mxCell id="SRw-rdq7U9tqC3mMRgA0-12" value="Tự nhập" style="text;html=1;strokeColor=none;fillColor=none;align=center;verticalAlign=middle;whiteSpace=wrap;rounded=0;fontSize=18;fontColor=#000000;" vertex="1" parent="SRw-rdq7U9tqC3mMRgA0-9">
          <mxGeometry y="7" width="100" height="16" as="geometry" />
        </mxCell>
        <mxCell id="SRw-rdq7U9tqC3mMRgA0-13" value="&lt;font style=&quot;font-size: 14px&quot;&gt;Thanh toán QR&lt;/font&gt;" style="text;html=1;strokeColor=none;fillColor=none;align=center;verticalAlign=middle;whiteSpace=wrap;rounded=0;fontSize=18;fontColor=#000000;" vertex="1" parent="SRw-rdq7U9tqC3mMRgA0-9">
          <mxGeometry x="120" y="5" width="100" height="20" as="geometry" />
        </mxCell>
        <mxCell id="SRw-rdq7U9tqC3mMRgA0-14" value="" style="rounded=0;whiteSpace=wrap;html=1;fontSize=18;fontColor=#000000;strokeColor=none;" vertex="1" parent="SRw-rdq7U9tqC3mMRgA0-5">
          <mxGeometry x="20" y="186" width="230" height="60" as="geometry" />
        </mxCell>
        <mxCell id="SRw-rdq7U9tqC3mMRgA0-15" value="" style="shape=image;html=1;verticalAlign=top;verticalLabelPosition=bottom;labelBackgroundColor=#ffffff;imageAspect=0;aspect=fixed;image=https://cdn4.iconfinder.com/data/icons/hodgepodge-free/32/bitcoin_address_qr_code-128.png;rounded=1;fontSize=18;fontColor=#000000;strokeColor=#000000;" vertex="1" parent="SRw-rdq7U9tqC3mMRgA0-5">
          <mxGeometry x="67.5" y="224" width="128" height="128" as="geometry" />
        </mxCell>
        <mxCell id="SRw-rdq7U9tqC3mMRgA0-16" value="&lt;font style=&quot;font-size: 10px&quot;&gt;&lt;font style=&quot;font-size: 10px&quot;&gt;Lưu ý: Mã QRcode chỉ tồn tại trong&amp;nbsp;&lt;/font&gt;1 ngày&lt;/font&gt;" style="text;html=1;strokeColor=none;fillColor=none;align=center;verticalAlign=middle;whiteSpace=wrap;rounded=0;fontSize=18;fontColor=#000000;" vertex="1" parent="SRw-rdq7U9tqC3mMRgA0-5">
          <mxGeometry x="21.5" y="198" width="220" height="20" as="geometry" />
        </mxCell>
        <mxCell id="SRw-rdq7U9tqC3mMRgA0-17" value="" style="html=1;verticalLabelPosition=bottom;labelBackgroundColor=#ffffff;verticalAlign=top;shadow=0;dashed=0;strokeWidth=2;shape=mxgraph.ios7.misc.loading_circle;rounded=1;fontSize=18;fontColor=#000000;" vertex="1" parent="SRw-rdq7U9tqC3mMRgA0-5">
          <mxGeometry x="120" y="383" width="20" height="20" as="geometry" />
        </mxCell>
        <mxCell id="SRw-rdq7U9tqC3mMRgA0-18" value="Chờ thanh toán" style="text;html=1;strokeColor=none;fillColor=none;align=center;verticalAlign=middle;whiteSpace=wrap;rounded=0;fontSize=18;fontColor=#000000;" vertex="1" parent="SRw-rdq7U9tqC3mMRgA0-5">
          <mxGeometry x="61.5" y="411" width="140" height="20" as="geometry" />
        </mxCell>
        <mxCell id="SRw-rdq7U9tqC3mMRgA0-19" value="Kiểm tra" style="rounded=1;whiteSpace=wrap;html=1;fontSize=18;fontColor=#4D4D4D;align=center;strokeColor=none;fillColor=#D5E8D4;" vertex="1" parent="SRw-rdq7U9tqC3mMRgA0-5">
          <mxGeometry x="26.5" y="442" width="200" height="30" as="geometry" />
        </mxCell>
        <mxCell id="SRw-rdq7U9tqC3mMRgA0-20" value="" style="group;fontColor=#4D4D4D;" vertex="1" connectable="0" parent="1">
          <mxGeometry x="870" y="530" width="510" height="660" as="geometry" />
        </mxCell>
        <mxCell id="SRw-rdq7U9tqC3mMRgA0-21" value="" style="shape=image;verticalLabelPosition=bottom;labelBackgroundColor=#ffffff;verticalAlign=top;aspect=fixed;imageAspect=0;image=https://scontent.fsgn5-5.fna.fbcdn.net/v/t1.15752-9/178576172_322075259276850_1563151602902757826_n.jpg?_nc_cat=108&amp;ccb=1-3&amp;_nc_sid=ae9488&amp;_nc_ohc=aRAGJPIJW3gAX8qMFGl&amp;_nc_ht=scontent.fsgn5-5.fna&amp;uss=f4c936956c533fc1&amp;odm=cG5qZ3JvdXAud29ya3BsYWNlLmNvbQ&amp;oe2=60ACEE09&amp;oh=245c24979d003e99073ed17e1cbce9f4&amp;oe=60867599;" vertex="1" parent="SRw-rdq7U9tqC3mMRgA0-20">
          <mxGeometry x="10" width="243" height="520" as="geometry" />
        </mxCell>
        <mxCell id="SRw-rdq7U9tqC3mMRgA0-22" value="VPPAY QRCODE" style="text;html=1;strokeColor=none;fillColor=none;align=center;verticalAlign=middle;whiteSpace=wrap;rounded=0;fontSize=18;fontStyle=1" vertex="1" parent="SRw-rdq7U9tqC3mMRgA0-20">
          <mxGeometry y="80" width="190" height="20" as="geometry" />
        </mxCell>
        <mxCell id="SRw-rdq7U9tqC3mMRgA0-23" value="" style="rounded=0;whiteSpace=wrap;html=1;fontSize=18;strokeColor=none;" vertex="1" parent="SRw-rdq7U9tqC3mMRgA0-20">
          <mxGeometry x="10" y="160" width="240" height="330" as="geometry" />
        </mxCell>
        <mxCell id="SRw-rdq7U9tqC3mMRgA0-24" value="" style="group" vertex="1" connectable="0" parent="SRw-rdq7U9tqC3mMRgA0-20">
          <mxGeometry x="20" y="167" width="220" height="30" as="geometry" />
        </mxCell>
        <mxCell id="SRw-rdq7U9tqC3mMRgA0-25" value="" style="rounded=1;whiteSpace=wrap;html=1;fontSize=18;fontColor=#000000;" vertex="1" parent="SRw-rdq7U9tqC3mMRgA0-24">
          <mxGeometry width="100" height="30" as="geometry" />
        </mxCell>
        <mxCell id="SRw-rdq7U9tqC3mMRgA0-26" value="" style="rounded=1;whiteSpace=wrap;html=1;fontSize=18;fillColor=#dae8fc;strokeColor=#6c8ebf;" vertex="1" parent="SRw-rdq7U9tqC3mMRgA0-24">
          <mxGeometry x="120" width="100" height="30" as="geometry" />
        </mxCell>
        <mxCell id="SRw-rdq7U9tqC3mMRgA0-27" value="Tự nhập" style="text;html=1;strokeColor=none;fillColor=none;align=center;verticalAlign=middle;whiteSpace=wrap;rounded=0;fontSize=18;fontColor=#000000;" vertex="1" parent="SRw-rdq7U9tqC3mMRgA0-24">
          <mxGeometry y="7" width="100" height="16" as="geometry" />
        </mxCell>
        <mxCell id="SRw-rdq7U9tqC3mMRgA0-28" value="&lt;font style=&quot;font-size: 14px&quot;&gt;Thanh toán QR&lt;/font&gt;" style="text;html=1;strokeColor=none;fillColor=none;align=center;verticalAlign=middle;whiteSpace=wrap;rounded=0;fontSize=18;fontColor=#000000;" vertex="1" parent="SRw-rdq7U9tqC3mMRgA0-24">
          <mxGeometry x="120" y="5" width="100" height="20" as="geometry" />
        </mxCell>
        <mxCell id="SRw-rdq7U9tqC3mMRgA0-29" value="" style="rounded=0;whiteSpace=wrap;html=1;fontSize=18;fontColor=#000000;strokeColor=none;" vertex="1" parent="SRw-rdq7U9tqC3mMRgA0-20">
          <mxGeometry x="20" y="194" width="230" height="60" as="geometry" />
        </mxCell>
        <mxCell id="SRw-rdq7U9tqC3mMRgA0-30" value="Thanh toán thành công" style="text;html=1;strokeColor=none;fillColor=none;align=center;verticalAlign=middle;whiteSpace=wrap;rounded=0;fontSize=18;fontColor=#009900;" vertex="1" parent="SRw-rdq7U9tqC3mMRgA0-20">
          <mxGeometry x="27.25" y="282" width="208.5" height="20" as="geometry" />
        </mxCell>
        <mxCell id="SRw-rdq7U9tqC3mMRgA0-31" value="" style="shape=image;html=1;verticalAlign=top;verticalLabelPosition=bottom;labelBackgroundColor=#ffffff;imageAspect=0;aspect=fixed;image=https://cdn4.iconfinder.com/data/icons/simplicio/128x128/notification_done.png;rounded=1;fontSize=18;fontColor=#000000;strokeColor=#000000;align=center;" vertex="1" parent="SRw-rdq7U9tqC3mMRgA0-20">
          <mxGeometry x="102.5" y="211" width="58" height="58" as="geometry" />
        </mxCell>
        <mxCell id="SRw-rdq7U9tqC3mMRgA0-32" value="" style="shape=image;verticalLabelPosition=bottom;labelBackgroundColor=#ffffff;verticalAlign=top;aspect=fixed;imageAspect=0;image=data:image/png,iVBORw0KGgoAAAANSUhEUgAAAaoAAAEaCAYAAABARRODAAAgAElEQVR4Aeydh3sUR7b273/1fXedjXPAJidv8t1vd+9e797Nu16vA4hkcAAhoQwGZ2MyIqOcEzlnE0zOSSDp/Z5fzdTQjHokDUoj6bSeUs90V3zrnPPWqa6p/g/ZYQgYAoaAIWAIpDAC/5HCdbOqGQKGgCFgCBgCMqIyITAEDAFDwBBIaQSMqFK6e6xyhoAhYAgYAkZUJgOGgCFgCBgCKY2AEVVKd49VzhAwBAwBQ8CIymTAEDAEDAFDIKURMKJK6e6xyhkChoAhYAgYUZkMGAKGgCFgCKQ0AkZUKd09VjlDwBAwBAyBhyKqtrY2tba2qqWlxYJhYDJgMmAyYDLQqQzAGXDHwxxJEZUnqNu3b+vChQs6c+aMBcPAZMBkwGTAZKBTGbh06ZJu37rtnJxkCSsposKDOn/+vHbu3KmampqEobq6WhYMA5MBkwGTgaEtA7W1taqrq1NVVZXjhF27djkOgUuSObpMVDDgrVu31NjYqIaGBp0+fVpXr161YBiYDJgMmAyYDITKwLVr10S4cuWKTpw44bgDJ+fOnTtJTQMmRVTHjh1TeXm5cOGYb7TDEDAEDAFDwBDoCgJwxuXLl1VcXOxIK5npvy4TFYXs2LFDuHK4bckU0pVGWBxDwBAwBAyBwYsAnAGPMB28e/fupJydpIiKKT+m/oykBq8wWcsMAUPAEOgtBOAOnlnBJcnMyiVFVE1NTc6jMqLqrW60fA0BQ8AQGLwIwB319fUu9BpR4U3BhkZUg1eQrGWGgCFgCPQWAnAH3lSvelQQVX1dvRFVb/Wi5WsIGAKGwCBGwIhqEHeuNc0QMAQMgcGAgBHVYOhFa4MhYAgYAoMYASOqQdy51jRDwBAwBAYDAkZUg6EXrQ2GgCFgCAxiBIyoBnHnWtMMAUPAEBgMCBhRDYZetDYYAoaAITCIETCiGsSda00zBAwBQ2AwIGBENRh60dpgCBgChsAgRsCIahB3rjXNEDAEDIHBgIAR1WDoRWuDIWAIGAKDGAEjqkHcudY0Q8AQMAQGAwIDhqioqA8e+GRfS+zT2dkQMAQMAUNg4CAwYIgqHtJ40oq/PxC/0ya2sCfw2Q5DwBAwBAwBOXs4YHZP98bbG/TB1oG3bt3SqVOndPbsWd27dy8lmucxT4nKWCUMAUNgSCKAHUpZoqJywdfX89m/NMufPWn5774X+U58DH4wxMfz8btyJp87d+48UKeupEsUx7fP1+/qlavasmWLVq1apfPnzydK1u3r9+5G2gEW1CH+4JrHNex+fHz7bggYAoZAbyKAHUpJoqJit2/f1uXLl4Wn4Yxqa2RqDEC8kcXIX792XVevXnUE4sEi7YULF5x3cvHiRV26dEmnT592efo4yZypz5UrV1RdXa0TJ048UFYy+QTj0oZr1665OuJFUc9169Zp0aJFroxg3J78/OOPP6qiosJhSx3iD64Rbt686Yg5/r59NwQMAUOgLxFITaJqk+7evautTVuVn5+vyspKZzQxnlSYgzMkxVTZ119/rS+++MIZeq4Tdu3a5Qz+559/7u4vXLhQ3377rYv/MACT58GDBzV//nxVVVWpubn5YbKJpcHbgzwLCwtF3WgD3hRh69atun79eixuT38Az08++cS1h3qEHXiOGzduVEN9Q8pMQ4bV064ZAobA4EcA+5tyHhWVggjWr1+vP/zhD8rMzNQPP/zQbsoNT6usrEx/+9vf9M9//lN4Cp7Mjhw5It4sDGFt27ZNNTU12r9/f8cE0xbx1DDePlAXDs4HDhzQ1KlTXZmU7eNQpj+Ix/X4a3z3dSPuzRs31dTUpE2bNunQoUPasWOHI4bt27c7LwYS9vmQzpfF2dfJlxl2jqW5F2mLT8O5tLRU7733nvbu3evwCJbl87pz+47Wrl2r2tpaIyoPip0NAUOgXxDAbqUkUd1tvusM99///nf961//ckSDQQ0e586dU1ZWlv7617/qH//4h5vaw0Bz4JEx/Ydn4qewSO8NdjAf/5m0PL+5feu2m24kvU/T1tqmffv2KS0tzU3/MWUHWd24ccOV5fMlD+4FPS6uMT1JXIiGe4TLly676TeuU088LD5TFvF8GcSlLAJ1arnXMVlRF9pPfNr+QDva2hw5QrjHjx935TLlSBzS+HbQbqZKwdgOQ8AQMAT6EwHsUkoSFca5qKhIs2bNcqP/L7/8Mjb9B2AYcqbipk+frk8//dTFwaPiOgYXT2rp0qXKy8tTTnaOSM+UHQY57IBMeAa1efNmLViwQHPnzlVOTo7znnj+xf1jx45p5syZbpqRaUSmAbOzs53nQdn37rU4b4iyykrLYl4VhIHnR30og/pBDlxbvGixK4u8KPvMmTOOHCEpvpMXHhB1SU9Pd+2pr6/vsB0Xzl9wU4h4orQjNzfXET1kSIeT3wcffOAWbSxbtszdZ4oVD9aTKfUEO67FDxDC8LNrhoAhYAj0FgIpT1QYZ54zzZgxw5GPH/Vj/Hm+g4H/+quv9c4777jRP0TFirmMjAz37IdnPkxhYYjnzZvnvAjA9J6D/8wzGfKbM2eOvv/+e+d1YMTJH8LEWENUeG4Q48qVK12czz77zJEpJEgeGHrIbMmSJTGigiBWrFjhSAMPBS+HxQyUxfXi4mJHYuQLAZIP5AhJUR7tJ86qlavcsyXawbO5+AMypfzVq1fro48+ciQD2VEXyvLTeEyD/ulPf3LeKG0mzuLFix3pMwXpPTgGCTw7A1M7DAFDwBDoLwRSmqh4fvPxxx87lw+jybJtjD4GGc8D48uIH8P89ttvx1ax4a3wfOro0aPOcGP08UKmTZvmDD5gk4c/MMSsusPLwOshPoTIec2aNS5/PByeJfFsh2tM00EoEAbTj5AacSAhvBjq6j0RyIM0kB4kSrrDhw+rrq7OeVbcZ3Ujq/1Ii9eHR/PVV185YuJ5G+RBPDBh+hGPMf6gPJ7DkQdEShraceXyFUd6LI4gDzw58CovL3dtJB7PACF3iJ3yGQh4ogqSenyZ9t0QMAQMgd5GIOWJCu/k4IGDztvBkDLdh/HFoEJiPGfBK8DwQhKQDoYWImFOEyLDa8Ho86wL74EjSFQYeBYWvPvuu47QuAcw5EU+EB/GHKKaPHmy84YgG+JBMAUFBfruu+8cubBIwpOqL8MTFdOEEBX1h3BZnFFVWeVIDq9n9uzZzluDJCDJb775xk358Zm8qANe0ZQpU9xCjHjh4D4r+nj+dPLkyVgbSYsnRztoKwQFKUNq1IX7ECNThRAu5ROYVmU1pR2GgCFgCPQnAilNVJARU35MufFgH+PKFBjkgDfFtBtkghf0xz/+0Rl3741AChhajD1Tf5whM/Kk0QR/sHCjvq7eGXhWCAbv+bgYc4gqbUqae94DKXANEmGKjrrwuy1ICaLCo6FuHG7qb/kK53lBVJAAJEr9MjMynZe0YcMG5/Fxjft4Z0xB8mzKe5GQSmNDo/OoSK/7TXDlQJ5MU7ICElKifv7w7eDMb8EgZRaHQFy+HXhiy5Yuc4RPHcCettlhCBgChkB/IoDdStnFFHg/eFR4TRAQvzdieoznO3g2LO/GyEIKGF68BuLhVTDNB8HxHU8Lo4xHxdQZaWg4B2cM/O7du/X++++7BRfcJ0A0kA/5Egevi3z976iIA1HhdfAcya/a47kangkkQP6QDmQK6ZAXefJMiDSeuKgjXt+HH34YIyrIlWdrDxBVY6N7bgWhxhOV96hoB233ZEo7gh4VU3/EoT1BouIZGeRIXSAq6kKd7DAEDAFDoD8RSGmi4pkKRMXzE7wJnungSXENo4/XQAN4RvXvf/9brHbDwOJ1YWSZJsTDIR7GGaLiXpCoWlsihARh4M1AKHzGWOO5sVMEAbJhqo44EKWf+oOoIBxIhfikY7Ucngjl8p36Mz3I1Bp5Q1SQG/F41kYdIWO8QLwY2gA5kScr9oJEBUHxnIzfW8UTFYTEczkwgnCYzqN8yli+fLlb7UdZEDnPueKJivrRftJQB6ZWmZKML6c/BdbKNgQMgaGHQEoTFdN0TKP5H/viFWBMf//737spLjwGDryXP//5z256EEJjig5Cgcz8rhUYb348DKnRaAIHxp3fLZEOYuQ5GNN4GHa8HrwMlnPjeWDY8eQgO09Ufhk3cfGoqBPPxdj5AW+E52Pkh8eHp+WnB5mO5Br3WOkHkUFAeGwQBflCgNSH32BBrtQR95cpUBaLxB+0iXqxkAOS+X7J946wyDtjXoYjevJgehCPaufOnTGPCiL2dYYYISqedVE/j3N8efbdEDAEDIG+QCAliYqGY1AhCDwKv+MEBpPFBHgLeC8Ybw6WW2OMMe5cg1TwvjD0rLSDyJiu40xcGu3Tkt5/xzgTD9KB5Pg9FeUxfUgcptPwclhx56f1SIPHVVJS4ggG4sOTYjoSUqVepCFAWpCZn4rzy+bxrCAPpjqpI14PZEWeECvkQ/mkg4TxxvAWww7i4eVRb6ZKaQcLPZja9PngjeHxMQAAB9KwE4X3umgv+JOOwQKf7TAEDAFDoL8QwEal3DMqwKBiEBNGGwPtDww4o/8g0WCAPUn5eOzewHW8A/KBWDC4Pi/y9wefvcHmPukIpOO7j0se5Be7Ft1yCbKinr5OxKcsDL7PizPpfRzOfhfz5jv36+fbxn3Kis+X63hl5JXooHzfft8O0gXbwa4YXPPTenymHdSZzwRPmD5dovLsuiFgCBgCvYkANihliYrKBY0pQHAt3nB2dI30/n7w7EFNlBfTge7efT6L5ePT+rPP13/nzLWwsuPj+LTBs4/jr/nv/pzour/P2cfx57B7wWthaah/jJTjI9t3Q8AQMAT6CAHsWEoSVR+134rpBAEExA5DwBAwBPoTASOq/kTfyjYEDAFDwBDoFAEjqk4hsgiGgCFgCBgC/YmAEVV/om9lGwKGgCFgCHSKgBFVpxBZBEPAEDAEDIH+RMCIqj/Rt7INAUPAEDAEOkXAiKpTiCyCIWAIGAKGQH8iYETVn+hb2YaAIWAIGAKdImBE1SlEFsEQMAQMAUOgPxEwoupP9K1sQ8AQMAQMgU4RMKLqFCKLYAgYAoaAIdCfCBhR9Sf6VrYhYAgYAoZApwgYUXUKkUUwBAwBQ8AQ6E8E+oSoeGV8fV19ZDfy/mytlW0IGAKGgCEw4BDwRMULY90bNbrYgv/oYjyXqRFVV9GyeIaAIWAIGALxCBhRxSNi3w0BQ8AQMARSCgEjqpTqDquMIWAIGAKGQDwCRlTxiNh3Q8AQMAQMgZRCoM+Iqq6uLqmHYCmFklXGEDAEDAFDoN8QYAEFr6LvtcUUMOHu3btVXV2t69evq6Wlxa3+47oFw8BkwGTAZMBkoCMZgKRu3ryp2tpa7dq1K6nV411e9UcFLl++rKqqKrH6j8/37t2zYBiYDJgMmAyYDCSWgbv3dPfuXV29elV79uxxzg78Aad09egyUZEhxHTy5ElHVkwBbt++3YJhYDJgMmAyYDIQKgPbtm3Tjh07xBnOwJs6cuSI45KukhTxkiIqEjDld+XKFe3bt09bt24NDXhcFgwDkwGTAZOBoS0DEBTPo+CKQ4cO6dq1a45DkiGphyIq3DXmGiEsm/qzqU+TAZMBkwGTga7IAJxBSGZHCk9oSXtUPqGdDQFDwBAwBAyBZBCApNpau/5syudtROWRsLMhYAgYAoZAryPgVwYmU5ARVTJoWVxDwBAwBAyBPkfAiKrPIbcCDQFDwBAwBJJBwIgqGbQsriFgCBgChkCfI2BE1eeQW4GGgCFgCBgCySBgRJUMWhbXEDAEDAFDoM8RMKLqc8itQEPAEDAEDIFkEDCiSgYti2sIGAKGgCHQ5wgYUfU55FagIWAIGAKGQDIIGFElg5bFNQQMAUPAEOhzBIyo+hxyK9AQMAQMAUMgGQSMqJJBy+IaAoaAIWAI9DkCRlR9DrkVaAgYAoaAIZAMAkZUyaBlcQ0BQ8AQMAT6HAEjqj6H3Ao0BAwBQ8AQSAYBI6pk0LK4hoAhYAgYAn2OgBFVn0NuBRoChoAhYAgkg4ARVTJoWVxDwBAwBAyBPkfAiKrPIbcCDQFDwBAwBJJBwIgqGbQsriFgCBgChkCfI/BQROXfed/a2ioLhsFglwEv7z2tnT7fwY6ftc9sBDLg5f1h9ChpoqIwCr13756am5stGAaDXgbu3r3rZB7Z76mDvFpaWpwekb/pktmSwSwDyDic4QkrWT1Kiqgo5NatWzpy5Iiqqqq0ZcsWC4bBoJeB8vJyHTx4UDdu3HDkkqySxceHoMjrwIEDTo+Ki4tVUlLigumU2ZTBJAPIdlFRkZPt2tpaxx1wCFySzJEUUcH4u3fvFoq7Z88eHTt2zIJhMOhlYN++fU7mt2/fruvXr7spjGSULBgXT+rG9RvasWOHUNydO3bq0KFDToGPHz8+6LE0mzG0bOaRw0d09OhRF7Zt26aysjLt3LlTeFjJHF0mKhTs7Nmzqqmp0Q8//OA8K1jRgmEw2GWAARqyX1lZKUgr2dFgUCFJu3//fkdSZ86ccVN+fgpwsONo7RvatuL27dtuIIYenT9/PqkBX1JEtWvnLkdUKG5PztcHFdk+GwKphoB/ntTY2Kjq6upuTf9hrMlj165dbs7e9CjVetvq01sIIOt37txRfX29m5FLRva7TFQoGIq6detWI6ne6knLN6URwBMqLS3tHlG1tLo5e6b7ONArOwyBoYIA5NTU1OS4JBnZT5qoYMNkmHCodIC1c/AjALnwYLi15eHJhWm+TZs26fDhw4MfMGuhIRCHANzR0NDgQu8SVZ0RVRz29nWIIGBENUQ62prZawgYUfUatJaxIRBBwIjKJMEQ6B4CRlTdw89SGwKdImBE1SlEFsEQ6BABI6oO4bGbhkD3ETCi6j6GlsPQRsCIamj3v7W+DxAwouoDkK2IQY2AEdWg7l5rXCogYESVCr1gdRjICBhRDeTes7oPCASMqAZEN1klUxgBI6oU7hyr2uBAwIhqcPSjtaL/EDCi6j/sreQhgoAR1RDpaGtmryFgRNVr0FrGhkAEASMqkwRDoHsIGFF1Dz9LbQh0ioARVacQWQRDoEMEjKg6hMduGgLdR8CIqvsYWg5DG4EhQVQ0MpmD+MmmSSZ/HzeZMojLZoyJ0nA9GHwZ8edE6ePj9ff3gVLPruA0FIiqK7LXFay6GseX5+J3oN4PxItmHnYtvlzicHD2escr0VP5YONiv2Grr3Oi+nLfx00UJ5Wu0w+DflNaL3SdAd/VeD2RD2UFywt+7iz/4P2O0vky/DmYLtU/d9SuVK97fP2GAlHFt7mz7/QvhrUnjt6QlXZGvE1Jv122J9qWTB4xckpA3EGciNtT+CdTx4eNS90HNVEl0xnxcYMd+7AAh6YLEaTOykp0P/46333wZbvvrW1SSLk+Tiqeu/NajFRqz0Ajqnj56S0sKadbByLdxTzCiCfZsrtYVLLZ9nj8rugNti7e3vV4RXowQ/p50BIVwslbhVvutTzUaKgrCktn37sXcbm7qjSk8Xm3U6BOOpd0pImVFdB1n2dYFh3dC4vfn9fAhzYy1TKQlCkRZgONqILtQG7oA/QoWVkN5tPRZ8qgrwkPyHaCRK4eUZLy9UsQ1V0mTvwRds3H4V7wPuX1Vtt9mb1xpg303d27d905vl29UWZv5UndBwRRdQVkH4czgnXt6jXt3LlT586d67KgMRqhY7simJTzww8/6NjRYzp//rxTtM46ijTkf+vWLVdGV8sJ1sm3j7L47A//GeHk1c2kacOTih7+vv+eSmffJs7U//Lly9q7d68uXbr0QBtTqc5drUsqERX4diYHPg79QEB/du3apatXr3apyb4PSdtZWWSIrJ46dcq9FJJ+70wnyJc4pLt9+3an8X2lSYNOkL6jg3gEiNMNdLvYjo7y7Kt7vu7gTv3Pnj3r+g5cfb92pU/6qr5dLYc6pzxRAT7C5UdcYY2jIQghgkVAiHl1cV5envbv298lYaaMa9euOcW8efNmp0pGvVDg5cuXa/369Z0rcptcG44ePepApyzy6Oyg3SdPnnT5x4Qsyj/B73wmXLlyRUeOHNHFixcdDj7/WFx/4SHPvj8490Se5EHfeXK9ceOGqqurtWjRIjcQ6ApGD9mUPkmWKkTl+80b+rDG0xdehzgzoNqyZYs+//xz/fjjj2FJ7l9rk9NTyAPZxjjSr50d6NqePXv0zTffuH4nfUcH7aBu6B46Th07k0PSIFdnzpxxdessPhhB0OjR1StXXbu41pMHdSBPQmf16bTcNjlb4m0fuGMH1q1d53BlIEAZ3S6n04r0TgTqnZJEBdAe7OPHj2v7tu3idfa8ipuRHfeoPJ2MIcfI1dbWOuNWWlrqjHRJSYnKysp0/fr1dughuD4dZw7O5PHFF1/o9OnT7dLEX6Bs4hUUFKiwsNApAHESCQP5nzhxQpmZmaqpqVFXyJD8UPi5c+c6xYzP2ws518EEJS8uLtbXX3+tNWvWuBFVfJr4dgS/h8XlGuWgBNTF9cf27e4Mjt05yBeFop/AfePGjY6UaQN90RUj1J3y+yJtfxIVfef7DaMLplu3bnVyi+EGf3/wGfmBmL788ktnGJgpoE8gBXQs/iANckcZfPaEsHLlSpeOMjo70AtmPtAj5KAjonLtudPsiI34O3bscHrbWRnUi37Iyspy547i0w5IecWKFc6eUKeuDio7yjd4j3agS9g0+gT8unNQZ7ynTZs2afHixcIGYmvWrl3rBnthfded8vo6LXilJFEhWIx+GGW9++67mjp1qqZNm6YZM2Y4I4yHgYB7RYSUcnNz9e233yo7O1t8R8noQOLEHygXyrdu3To3cvL5VFRUaN68ecLr6ewgb+KjlMeOHetUYRB2yqOOCFFYveLLJA7toP11dXXudjCdrzftAQ/ahJFpbGzUd999p5rqGmdgiAemxEn2IK3HC2wnT56smTNnqrKyskv5USZYhS3mgKzLy8tdn2IgwR6CxVBQZrCtydY7VeL3F1H5ftuze48b6Lz99ttOl9577z0nTxji4EAAz4GZAQjg+++/dwYPPaIvkJ34vuA7pFJUVOT0AGNIPzMwdOkXLdaFCxc67QbqABnS7+i8k5UOUqEPyPjSpUud7nYQNXaLPPfv36+0tDRHbrEbIR9oB7K4ZMkSVVdV66uvvnLECAY9cYAbOrF582ZNnz5dn332mfP2upM3gz0wROexMZAVpMXUeWd4dqfcvkoLZilHVF4BNmzY4Awi3gcCj8Jg1NLT052xRyF83O3bt0efaVx2IyamBBA47gcPb6wZ6a1evVoff/yxc+8xisRHeLiG58Y1Rjqcg4pKnsF8GBmhsB0JBPG3bdumTz7+RAcOHIiNTklDGQiurwNnnxdlIWx/+9vfnDEgHvUMjmB9G0mHEqPsCC6fmb4gja+zL8vnQ17+fhAn/9mnY+oAhfps4WduegYip82+bB8/eOYe7aBelEtZfA+moR94FoUxp53kS19SfzAbDEd/ERX4oTeLFy12gzg8KWQVmcCIzZ492/UlfUOfoE8MhvCYibdv3z4dPHjQ9V+wz+gTL//0EzMEkBtTzfQ115AVyITyuZZIzsiH+8ySUL6XkUT9Tj0g008//dTV08suZ/Lx8kY+/jt5cR25+uCDD5weEp92E4c6kK9vI3KNDlEncOAz7SCebzvpfJk+H1+XRHX310kLaWbNz9Lvf/97ZWRkdEhU1Iv60ybXrub7iyN8ntQV7wyvmTpjY2ivt5E+3kA9g0HKERUCgQFbuHChC+fOnosJIF4JIwcUgWk3GkDn4fbSEEZCjPQxDsHRou8g4iN0eEIoGKNMPCI6mPgQ1axZs9zUHF4J8RAADDUCxkH9rl695oSB+5AnRiDR6IUyac+qVascyfopP67TBvJHcKk/U14QM/WhXZSFYWEUzEgJo84Ilmc4GBHyIg6Bz+RTVVXlplDAwRMK96kDZRCHfKoqI/HwwhD0eBKhrdQRBcQLZIAA2WKIUOaOFJN04MVik8aGRocR9fJ15j4LPe7cvqPjx467Zw2M3sGTONSV+gyGo7+ICvyQW+SZQZnvY2Th4oWLWrBggfNKkDO8XfoUeUS2kENPWtynv4IHedO3xMNLYbZjy+YtOnXylDOUEBfPGNEh8kFHdu7Y6WTHyxn1QJaYvmN6jb7nWRX15F78gbxgeJm+Y6YF+aJexEWuKQus0SeImGvoDveRVQav1JNpMYw48kYc2uF1jbjYGHSC++ga+ZGPLw8iIC90gXzQMwLEDmmF1d23hXvYCbw1pueZIWKWgnaFHbTv9q3bTifQHzBmqtDbK/qNPNF99IY4DPDBm8G2tw9heQ+ka+BAXxE6wje+Tf8RfyHRdzJFgOrr6tsJe6I0VAqAGZHhGtMBCAACTkCQIKZbNyMPURFupv0YZeXn5zsC+uSTT5zgxxtT6oOngSAT55///KcrhzIgKhTmr3/9q3JychwZohRMc0GaCBjpESqEeM6cOU7ZEbSPPvrIzQeHkSN1ZqqSujFnHCQ88mFqc/78+e4ZDYs/qBflMT1I/VGSv/zlL06oeY7DCIzRMAbo4IGDDhPwou54g9SdeOTJZ/AhHzxSptZQDq4X5Bc4zFBeSJC60z7w94c3DmDAA3VwQinpU/qBfMMO8qE82kE9MFyUSdsYTGAYwAHlBmPq5eOAK4pGmwbD0Z9EhTcAtkxfMUDz+uDlAV3wxMFgCx3yfUG/0F8YZPozeJCedkGATEsTkCFkFvKBpJgiJg/knj5FhoiD4aVMPLDCNYVOZpF75AS5xtjevNF+MRNlYnypY0N9Q0z2uI7+M5hjyouyGVShH8uWLXODHmQNwvnf//1fd4841O3DDz909gKC9rqNx8YzYQbDyDx1R58gKOLQbuoJNpQH4VMnbAAk4og/CFb0M3qFHWMgCsbgTT1odyKiom2QIjYmqEe0F12kPrSNvBh4Ewcs/TnH9gIAACAASURBVGcGAZQ50I+UJSrAZ7SC4UUIGAUxOkQJMKjcJyDsjEwQkv37D7jRGIYdIUMY4p8d0WCUhFEb8+gIIVMddCYCxgjqz3/+s/PaiEPAsDJlANkQ78D+A04gmCOnfMrDE6M8SIH8gwfChheDYCM41JsDIaNdeHUsxvAr+xjRomQoFnXCmEBUCDUEDUGQHyNZ0hGHeqKUeIfEoV54TdSJeWvqTT29YqDw5PPj6R+dMkJejCwfIKmoVwSGlEWAJKdMmeIUFYWgvcE0vt1g4KeXaMeli5dc+fQVo0n6EeWkbhgM2kN9qDftoP3gAUYD/egvoqJf8EwxvAz4MKroFPLk9QjZJCAbDBTQh7NnIjKGXmDwuU6/BOWavL3+YTSJAxEiZ+SNbEyZPMXJh5OzH390xp78+I7MejlnsMYgELJY+v1Sp1veCAf7nrwhAkiCuL4+1B+5+ve//+0GOLQPUvGEw6wC5aF7TKGjI5SHzkCKpOMe+aAD6AiDMdrsZ1+QffqROEyrMbiDvKgHcoyOgAMERx5hB/UFUwZv2Bkw5zNprl8L96jAmAF7fl5+bFoPXaGfIH3KBk/yweZ5G4Kt5Bq6BRYD/UDeUs6jAlQqxlQEQoEQQlgYej4zmkcZED46DeHH4CPIpMO4YYgxqExNEC/+IG8e3mIQ/cIGhIJ8UASEkrw4UO7333/fnREM0qH4GGDSIhR8hizXrF4TG+n5MsmXVU2M3qgvws5BPRFYSBDPgngIM4aCtnIPUoZ48PxQKl8nFIQ4uPl+Gg6jRF0QVqYGqDfKg+IRh3z4/v2S7523Ql5gxogZsoRYfP7Uj8+kIx+UmT4gLsrLKA98IRrwDaYjLe0oLip2WDKlg3cFdtQBRcZbAmPa4FdMkobfsYERI3SMhcfKATZA//UXUQEXMgbW9BeGDBlEvvlJBfVCvug/jAByiN4gh/Qn2JOOvkDnuB48iEOfIlN4FRhMyoMAkDm8EYw98UjLbAIyg+GEKJwBzs93Os6UIXKLt4FnRN+TV/BAFhkQMqgiPfLCQT0xyAzKsAukQ64hQgw6AzbSQkak5ezktU0OA3QZD546ggV54IlCPkcOH3H30G1sA3HAje/Uxcs++TOghdDAKv6gTrSbNoMV+fMdQqfeYEadXL0CiSmPAQZxsCHoHv1J3dCl5jvN2r17t/NW/cCWOoEN35mtgRzjsQwUMSA+gkvKEZXvMMCmoxAChBgBgKgQEgw0wso1lA9CIy4HnYKCMNXAcyGUMf4gTwwk3hp5UybpGd0hzAijP5ivRnkoAyFmGgXiwrsgeCVhqgPD7RXIpydfXHPqiSHwxpd6QqQoL+VxnbSMCBll0Ubqfv7cef3rX/9yiufz9FM6tIE4tAeyo26M9DASnFEcpl64j2AzhYDHQhraTHnkRfswXh57X46vO20DG5SAepKeaR8UCLL2bfbpOdM/4J+THZlGJT4jYtpHHmCCkfDTJaThQAkhMEaMfvDh6zMQz/Qtg46ubG2TqH3gy0AC+UnmQMZISz9i4PAuMMp+ihz9wUgybcygjVE+cTlIx4AIovJ9Hyyb/oKokCmMaZCoGM1jlNEXd7TJGXIMJwYaWYREIEemhNEjPzWMLDq8QogKMiAdeXjjiyxh/BmwMlijXrQBvcVWcL59+47TD8pj4OUP8ETfIUZkjTZAcDwDQ3/8KmLqxECRfD1RgaOXT+pAXtgF6h5/UC+eCVN3yBjc0Dum6mg7AzlPMMG09AH5Ug/6DP0mf3QHDKhPeVm5G3zQt3yn/QRmO+g74vrrPm+Pnf+e6mfak3JEBYh0JCMBjB1CgJIjFCgOCuCNPp0AITGq8J1B55IO9xzji5GOPzxRIchBjwqF9Xn7NIxkEFQ6HqWGjDCkCCojTuqA8ONtYGTjhYB6cX/2rNluFwvaw0E8iIr601a2eqLuGHIIAKLCuKDseDwokD9QdOahMf4oAWkQYkayu3ftdgaJ+qIInqhQDEiVKU9PVNQFosaAsFw5/uA+BIgyQyjUj3ozkkO5MQ4okm+TT49gUQaGjxEtcVcsX+Hi0y4MArjRRyguSspBOhQO742pG28IfL7+TLyBcvQXUdFPyAVGkOe59B0B2QdjZJiBGn2Et0AfEx95pT8JeL8MdrxRDmJOH6CnyBTEhG5QJmemAhlU8tkfeCAQBfLs5RdyYrEFsoCngz6hb9Q5vo+REeo5d85cZ6RpCwf1pDzag76QjjYgd/eJ6rbz1P3MiK8Tskv78PrBBW+evBgkcQ99Ru/Ix3tUDFghdYjLyydn9MQP6Hz+/oyNwXvyz6PRU8gdu4JuQ4x+tsXrAmlpIxgzUwJGDEzRc+wDuNFedIu2M11Kuwn0A/pP/thG8gniyWcC8cKOYNyw+319jfqkHFEBKsrNSMMLkAeOjmFkiUAg2AgT3gdGjQ4mHukReIwgwoVRjT8QSkb7TIMEPSrio7wosj9QHAScDkdoMLQoJ0qMklAmHU65hPgDwUFoML7kce/ufaLyHhzl+fQYDuKiLLSXVY8IMwbdHyg6JARRYfS9F4LQ0jbKZJoAZfBTf34EB1HxsJo6gw0C8M4777hRs8+fs28XRgPPB9L3SgDW1C/eo/Lpybu0pNSNZr3RAzvyoL+YmmTQAUkzJUQ7/QomRsD0L4oYhidlkL+XCc5hwdelv8/9RVTg7r0n5I++8wcyg+GEnJAl9AW5x8PyfcwZfaDv0YFgevIBc/oUOWRakc/0F+SE3OGRMGD0B3rriYrrDDiRTeSUdORHv3p58en8GTKAHNBZZNLLBvGZfoRMkCPyoa7oGnpE3dEJBouQEtf9gRxiJ8CJAR8DVXCA5MiDQP9xDV3lO0QFbgwyvc0hf+4zOwKhxB8MAPAG0VfsDrMa4ANxMVsCUfkyfVraQT9hA6kD7QQD8EKHSM9n0kGc6DH1cHodnfqkvQyCySv+8Hj763z38fxn/93H6a8z9Ug5oqJSCD0jB7wGDDSGGMCZd2UUD1FgeBmdsaghY16GG/lg8Ok40jEdEBToIMgIHEKJoSR/FAcPAGHCo0KA/QEhYjgxoAgmWzKRPyNGyqNeKDgERj3jOxeFgtSYIoFQKZsDgUJBECaEH0EkLkKNYniPitEYwhxPVBkZmU7owcp7S0z5YZQQbAgAwwBWCLAnKtpHW6gryovHhZJD2PEHbSEtfUGdGF2CDWcwwLv03lkwLe1AKWkz9QYn6sRCCowK/YJhoO9QOkiJ+oAD0xwYP4gsHkvKoDz6GEzpD/CizUz3YqhoG33iBwTBevXHZ9rdH1N/9AE4oC8QBxjxnQABYdwYONAP9Ad9zMgcQ05f8LMC+s8/a0Jegwd9Q19wn0El+ZMXU1IYUYwvn/2BbmHI0VkMLoaH8jDcyBT1YlYCI+5nOXxazuiHN8roG9/9dQiPQVOQqJBt5Bqiop58p/wgUTHQZXoMW0AcltBDbugOskh5DOz+8Y9/uDieqLAHYEreYMVsA9N6eGMQf/xBX9BmdIlyCMgrNgp9YLEReRPHyzxn4uCtEofBBHqE50af0ncMCiCzb7/9zukM+IEjbczLzXMDAfrA5xmsF2mxbegPekQ7kFX6kHLBi8cO1L2/D+qfckQFKAghgHvDhgD4eXU6jo7wnUo8hAll4R7TCYzwtm3dlhBkwMfQzfpwlksHCAg5oyKEgDz9gTD66UXqhWDguaDE1Im68ZlFFnhD8QrNd9JglKmbH4VRB/KBAFBUvhMX0iQeUyWQEEIDmUHS/qAcyoTMEHqEC2VDWQgINooECWAwwAoFIg0Gimk+jye4UQ/qFXZQJ6YeIGbIibxJA6Eg3HhC8YpAGpSKOBAlo3faRFqUGqUES8gIw8Q96oPiUm/aSrs4GAwG82cUiVHFmNBuZIG0KDDKRxv5rV2i9oS1sTev9RdRgRkYYrwgDvoBfPlZAv2IR+NnBZA9pp7Alb4ino+DwaY/ww7kikELXhc6h95gGCEvZIz+4KAukCMkwDXKQ67xSpAJBiboLmWjg2HGlTpwHVlBZoJ6RNn0O/pCWcgWnk1mRqaTCwiCKXGIC3nx8oT8+udGtAXdgzixARAf9QE7sEAfyZcpNggPPBmoUW/iUi/62g9Ew/AKXqNvkHXqjX2gTtTT1424lIf9oQwwwtaAF9+RdwZjxAF3+o68qDN40L8MHmhX2AFJU2dv+5hWRMexExDYgoIFjqzIv78PMElJogIYOgHB8aMIQEcQABLwfId6oeceyoZi4T14QU4EMgJFZ/FbJEYV5IkRPHzosJvT9+lQDpSdkSBlEhAyjDfCwqiLfIiXSKG5jgKi0JThSYnPCKIfCZI39aYteDgIGYE2odj+IA5KRr19XtQJgSU/AvVjZAoZUD64IeQoF/GoN4F8KJ+Q6KAMykJJafOhg4dimPl+8Nj4PEgDJpAwfUegLkHFIQ59TBzyBUfi0Bafr8+PM33k2048+pCtf5ARDCD3yCORJx3Mq68+05f94VHRPjAEb/re9x19Dt5BOaQfwJa+8HpEfAZEXE90kD/kgN6Bu/OW7jQ7uUP+vNEmHn1CPN//XGOggSxCHr5eXEukR6RhUIrRRh+oN9fIA/nydSW9lz3qRzzkAxnjTBoOZJ52et316WgLxpr41Ju2gCHpsBdMP+Ih8uYEdJM8kEdfn0R4Ba8TF/0kLfLu03rMiEt5fCdvsAMjznz3OBLP9x15MaPAmfqiD+RBu3ybfR3Agb6mzymDNjJwgSzBFgw8Lj5Nf52pe8oSlX9mQScAJIHP7UCP/jo7GK9dnBCEaTxpCF5ISOfL8Em4hlBw9gdpSQOZBuvl74edEQRGOYw0Hem1RvMIkC7pKMflHb3u6xlfvq879306RmYoMiMjL/zkBZZ+ehDPDmNAm6i7b1sw/3b1j8PYY+TLbhc/eoE8iev7z+McjB+MQ9ywOMH4/Ag5Vn5rRAnJIz50Vrdgnr35uT+JinaBQxDjRPIajOdH6qTrDEefN4uBgn0Q3498p+xgfnz21329gvfD+gXiwAvimZf3QJAHQvAgX18H8qRulMHZH0FZ8tdIg67iMeEF+nx8OkgAomLwgY75evuyfD6dnX2dSEfevt3+7NO7eNHXD/mygvFdvDD9bLmfp88reCYPr0d8dvVoiehRsM3x9Qnm0VefqUPqElVfodDL5SAEBISM0RCjwfgl2T1RBToTomLqArKizOABUflpE0ZT/r4XRP89mMY+dx+B/iaq7rcgtXJgYMXzE6a/8KK8/PZULdEDZg+YXmQmJf7Ag2IKk2lL6mJH7yNgRNX7GDtC8KMmBJuHojyD8fPS3a1CUFH5DAkFpzd8/kyBQJBMDTAS9cQUTO/j2rnnEDCi6jksyQkvCD3i2RiEhW719IFuMDWKxxR/MC1G2Uw3eh2Kj2PfexYBI6qexfOB3IIE4D8j2MwbQyR4WP76AwmT/BKfB9/jr5ElZUNQlB9UsLC4SVbBoneAgBFVB+A85C3kl+nr4MzAQ2aVMFlnegRBmu4khK9Hb4CzTf31KKSWmSHwIAJGVA/iYd8MgWQRMKJKFrFBEt9Ggn3XkUZUvYN1X8twcBaid1pkuSZCwIgqETJD5HpfK/sQgfWBZhpRPQCHfTEEkkbAiCppyCyBIZAcAkZUyeFlsQ2BeASMqOIRse+GQA8jYETVw4BadkMOASOqIdfl1uC+RsCIqq8Rt/IGGwJGVIOtR609KYeAEVXKdYlVaIAhYEQ1wDrMqjvwEDCiGnh9ZjVOLQSMqFKrP6w2gxABI6pB2KnWpD5FwIiqT+G2woYiAkZUQ7HXrc09iYARVU+iaXkZAiEIGFGFgGKXDIEkEDCiSgIsi2oIPAwCRlQPg5qlMQTuI2BEdR8L+2QI9AoCRlS9AqtlOoQQMKIaQp1tTe0fBIyo+gd3K3XwINB3RFVfb1viDx65sZYkgYAnqu68N4m0vNGW14PbYQgMNQQcUdU3uFd9JLM58H90FSgy3bp1q3tZIIXZYQgMNQR4q3NZWVm3XvAHUW3evFm8XdYOQ2CoIeA9Kl4422tEtXPnTtXU1OjevXvmVQ01CRvi7UXBGKjxRtjuelRFRUVCl2zAN8SFaog1H3mHnBobG7Vzx073hueuQtBlj4pCTp8+reLiYp06dcq9QhqFtWAYDHYZ4A3O58+fV2lpqfCqkhkJxisiaY8cOeII7+zZs06PGPgNdgytfUPbTiDjzc3N+uGHH5weXbp0KamBWpeJCoVDYffu3auqqio3x37u3DmFhrPndM6CYTAQZSBEpo8dO+ZkvqmpSbdu3UpKweKJigHfnTt3Yt4Zz6oe0KGBiJnV2XQ9kQxE9YlB2b59+1RZWant27c7LlEST5CSIiqU7Pbt2zp+/Lh7VlVbW6uwwPSIBcNgoMkA09phoaGhQQcPHtSVK1e65U150sKrunr1qsuT8urq6sScPZ8HGmZWX9PzjmQAmUZ/4AnkHI/KDfZak2ApSUkRFYoGWeFZXb9+3SkbChcfUGgLhsFgkYFr1645L6g7U36epPyZvJgK8bpz7eo10xmzG4NSBpBxbAF6BHfAIckeSRNVsgVYfEPAEDAEDAFDoDsIGFF1Bz1LawgYAoaAIdDrCBhR9TrEVoAhYAgYAoZAdxAwouoOepbWEDAEDAFDoNcRMKLqdYitAEPAEDAEDIHuIGBE1R30LK0hYAgYAoZAryNgRNXrEFsBhoAhYAgYAt1BwIiqO+hZ2j5DIPjbCz4HQ1gluM+2PfGHTxd/3b4bAoMagQQ/XfL6wDns8PcT3Qu73hvXjKh6A1XLs1cRQHla7rW4zZEhozAl4we18ZsnE89fj/14N1w/e7X+lrkh0NcIhOmI06OWiB6hD2FxuM6WX/EHceP1Kz5OT343oupJNC2vXkeAX7azKTL7TbJBMlu0sFlyPGHxS3i2duHMPZTtwoULbo89tnLhuh2GwFBFAH1gD0t0AT1i/73Lly8/sEUYZMRelHv27ImRmCeokydPircAXLx4sU8gNKLqE5itkJ5CALJZs2aNvv/+e5WXl+ubb77Rxo0bHfHEvCRJ27Zt07q169wWRSjl3j179d1332nJkiWO3NgNPWwE2VP1tHwMgVRFAD1hz70vvvhCK1eu1JYtW/TZZ5+5gR26gl4wuGOLL96dxoDP6xZndj7/9ttvNXPmTEd2fdFOI6q+QNnK6DEEGOEtXrxYvG2XzS13797tyIeNkv1UBOfVq1e7zTD5DLmtWrnKKeSZM2d048aNh95zrMcaYhkZAv2EACTETMTChQuFPrBvKy8EhbS8V0UcZirQI3QNgoLAIDIGiLm5uUpPT3cblPdFM4yo+gJlK6PHEOA1M/n5+eK1AZAQyvTll1+6VwgwLYiCMS1RWFjoCAoF43t2drbzqJYuXeqUj+kMP3rsscpZRobAAEAAvYGYVq1apevXbzjPCX1AN3jljPemeFEoHhVEBkmhX8RjVoL0n3/+uRHVAOhvq2I/IICiMJqDqCAh5shRHDwrFAny4Z03KNKd25FpDNK89957KikpcV4WCsk0IJ4WedhhCAwlBJjSQxcgKmYX7t295wZ6X3/9tX788UdHVDzDXbdunXs9B3oFUeFtrVixwpEXMxs5OTnO2+oL7Myj6guUrYweQwDSwaPyIz/IBqLiOgqFMi1btswpXmtLhIR4UJyVleXe0st0IQ+RFy1a5B4UM7q0wxAYSgigJ7yt2hMV33mpIYM3pgLRCZ5hoUcMCL2HxXQhsxenT512A8P58+dr165dfTKNbkQ1lCR0ELQVhVqwYIEb+TEyPHHihHuwy4sN8aZ4zTujPojMH0wXkgbvizgoIQrHqNCIyqNk56GCADLPSj8WRPCuKF6Gy2COBUrojf++adMm9w4pvKmrV67qq6++0ty5c93UOQsx/vWvfwkvDB0kTm8eRlS9ia7l3eMIsGiCxRQN9Q1upR8rklA4lOXWzVuRZetFxW6hhS8cYoKoWNLOiiXSML/OsytGi3YYAkMJAWS+qalJBQUF7hmTX0m7YcMGR1zMSkBSO3fudM+vICHIi5kIBoRHjx51OpSXl+fy4YWIRlRDSYKsrZ0iwJw68+tM3TF18dWXX7nnUcypo2Dr16/X/v37H/CU8LwaGxvdiJFpQrwpSIu82pJ8JXanFbQIhkCKIwCpMLvAzAODPgZ6DNyYPr9586YjL34C4qfXaQ5p8MSYkQjOZDBA7IvnvOZRpbhQWfUeRIDRINMVKBXkw7Qe31EipgUhKr4HlQclYx6eESFpDhw4EJvSeDB3+2YIDFIE4mbm0CMGdgcPHHS/OWQRBSSEnvAjYBYj8TmRp8QgD91jRWBfHEZUfYGyldFjCKA4kBCKBjkR+M51FI/l6kGS8gVz36dh+6WwOD6unQ2BwYZAPOF4PfI6BCmhHwQ8KaYDOzq8PsXn21Ga7twzouoOepY2pRCAfFptKi+l+sQqMzAQgHA86fiBXyrV3IgqlXrD6mIIGAKGgCHQDgEjqnaQ2AVDwBAwBAyBVELAiCqVesPqYggYAoaAIdAOASOqdpDYBUPAEDAEDIFUQsCIKpV6w+piCBgChoAh0A4BI6p2kNgFQ8AQMAQMgVRCwIgqlXrD6mIIGAKGgCHQDgEjqnaQ2AVDwBAwBAyBVELAiCqVesPqYggYAoaAIdAOASOqdpDYBUPAEDAEDIFUQsCIKpV6w+piCBgChoAh0A4BI6p2kNgFQ8AQMAQMgVRCwIgqlXrD6mIIGAKGgCHQDgEjqnaQ2AVDwBAwBAyBVELAiCqVesPqYggYAoaAIdAOASOqdpDYBUPAEDAEDIFUQsCIKpV6w+piCBgChoAh0A4BI6p2kNgFQ8AQMAQMgVRCwIgqlXrD6mIIGAKGgCHQDgEjqnaQ2AVDwBAwBAyBVELAiCqVesPqYggYAoaAIdAOASOqdpDYBUPAEDAEDIFUQsCIKpV6w+piCBgChoAh0A4BI6p2kNgFQ8AQMAQMgVRCwIgqlXrD6mIIGAKGgCHQDoEUIao2tapV/JfaHghcbXEhWnduE40QcgRT+2j+HBK9a5eCmdrn+C4K/941ZB+MlSy2D6a2b4bA0ETA601c69td9heitpMTl+IPrnGvJRoSxYtP15vfU4Ko2hxFBYiqrU0iREnLg+ZA9Sh69O5HC0e9J9CLL8O++64JP3cH82Sw7U45ltYQGCwIoDPx9rCTtnk1i0WLu+BtbqqQVYoQFThDV1G0IKlWQoyr/J3Y2X3wKAbPpEkUyN4OQ8AQMAQGEwLYtaAN5LO3nVETyte7ku5IuhX97CAgbby9jNrJBJf7BbmUIKquttxj6vshPh33fYgHme9R/OOT2XdDwBAwBAYsAtg1bxNjNs4bwuA5ykk+bqzBxAkazGgmcUlj0fvjQ+oQFUBFyQQgfYhejmHjMY1iGbvu0wbx9nn4c3xeDyS2L4aAIWAIDEAEsGt4S9i5mI3zhjJoEANG09+ONZcLPsQuRj8kuh4frxe/pwZRAQQoR2f7vHvqXdQHwPegcfFeB8GzU/AczT/Yd/b5wcGU4WF4mAwMLBlwBBO0c/Gf6VDsZvTEVx8lcOuB+97MunQ+QTSPSE59+z91iAowogBCVLclNUd5yN3wCyz8Iou21uhzLP88i+8dh7a2VrVaeDgM3LpM1mbanyFgCKQSAnK2MGr72lrl7FxMTyPP/mPP/x3zhDMOVz0nQWTOJAcvRm10xFL37f/UICrazEK/KFHhxuIsOThjCyta5TpErWpRi+6oRTfVohu6p2u6qytq1mXdiYVLuqOLceGK7uhGq4VkMbjZdkeDKzTrZltY6KidYfHtWjiOhktf4nJdzVH716xLataFQLisu7que7qtFt2LTQ5iSwPTSxhaZ2xDiArb7NlrqBOVJyhwiJBTFBxW/t1pllruqVX3dFPNuqhbOqXr2q1L2tx2Qiuu79Oik7XK2LdZH20v1IeNKzUjLkxvXKnpTSs1tWmlpmwNCdtWavrONX0SZuwqVGjYvVYzQ8KM3WvD45NPSPywPB64tmedZiYRPtyzTrP2btCsfb0fPtq/UaHhwCZ9nCCExiefBPHJ55ODm0PDxwc2h5eTID75fHpoSw+GIs05nCAcKdackDD3aInSE4Sw+Fwj/rxjpRYGCQYZR0s1/2ipMgMh60ipcg+XaumZrdp4fo8arh/X8bbLuqCbuq7buosrgH31JBUlqqjP4LgpdokPMePct56ULy0lPCpwwIOKEbaf5mtt0T1GvrqjM7quvS1ntenibuXu3qh/VnyhUWs/0fCVH+rlZdP04tJpemXFTL22ZrZeXjFDL8WFF1fO0AurZui51e3D81zjXlhYPUPcDwsvrJmpZMOLhR8qNKydpZf6ILy8/iO9kmR4deMnSjYM3/ipkgqbPtXrm+fo9S1hYa5e3xIeRmyZqxFb0tuHonSNCAkji+ZpZHF4GFWSobAwuiRTo0vDw5jS+RpTFhK4niCMLctSaCjP0riK7NAwoTJXoaEqVxOr8kLDhKpchYWJ1XmaVJ1vYZBg8EZ1vn5Wma+fVt0PP6/M15sV+XqrZrH+Wv2lPqj9Thm71uv7k/Uqv3FYB1suCm/rptrcIxam+mLE5Nkhhc4pQVTgEQSJOVbc1Btq1rF7F1Vz9bAWHSzRu1Vf6r/Wp2vUiul6YXmahq2doafXTo+Ewul6et0MDVs/052fWjdDT8YF4j9XGB6eXztTz6/9sF14Yd1MJQovrv9QyYaXNsxSWHh54yy9vHF2aHhl02yFh4/0yuauh1c3f6ThWz7R8KIkA2mSDK8VzdFrRXO7HF4vnqsRJeFhZOlcjSxNDw2jyjIUHjI1qiw8jC7PVFgYU5GlsZWJQrbGVrYP46qyFR5yNL46QajJ1YSQML46V+OqckJDWPzItTxNqAkPE2vzFB7yNbHWwmDBYEJdvsbX5Wtsfb7GNORrVGMkjG7M1/itCzW+oUDjanL1Rk2+flW/SH/YeBzprAAAIABJREFU/o1m7VmvlSd2qPHWGZ3QbV2NEpbjJoyxD1GyCtrn/uCvlCEq71ry0I/nT2d1U1tvn1TOro36R+XnGr/2Ez2/YoqeXPWBniicEgmrJuuJVVP05Oo0PUFYk6bH16TpqXXT9GRceGLdND21brqGrU02TNWwdWmh4dn105RU2DBNz26YrufCwsbpei40zNDzm2aGhhc2z1Sy4cWiWXopyUCaF7d0PbxUNFsvF3+il4s/TSJ8oldKPg4Nr5Z+rFdLPwkJn2p42VwNL0tvF14rT9dr5fOSCq9XZGhEolCZqREhYWRVpsLDfI2qDgtZGl2TKGRrTG1OaBhbl6PwkKtx9XkWhjAG4+vzNKEuT5wJ4xryNDYaRtVma0xdjsbV5WpCfZ4m1efrp/UF+kXVAv1PxVeauWujlp3drR3NF3RezWqGoWAlprf6ebovSIi9SlQPsPADX4JViLJ3SwSd27qn07rl5lXfLl6kCas+1gsrp+nxVZP12Po0Pbp5mv5zY5p+snayhq2dpqcLp+qpNZDUFD1ZmKanCqfqicK0duFxrq1N05Nrp4YGyC08pOnJdVNCw9Mb0vT0hqlJhWEbp2rYxmntwjMbp+mZTeHh2c3TFRae2zxDz21JLjxfNFPPF32YVHiheJaSCS8Wz9ZLpZ/o5dJPkwjE/1gvl37UPpR9rFdCwyd6tXyOXi2f2z5UzNXwivTwUDlPwxOE1yrnKTRUZei1kPB6dabCwojqTI2omR8aRtZmKTQkiJ8oH66Pqs3S6Lrs0DCqLlthYXR9jsZYGDQYMICZUBsJ42tzNN4RE+SUo/H1ue48FsKKBhe/6TNNaPxcE0ry9FbZ58rYW6SKq8d0RnfU7B/C+KV/Ue6Ks9p9+rV3iKo1siTyXnRTJMfQgUbH2JrFJ665LK1s1nXd0n5dVO4P5frZpgw9v2aGhhVO11Orp2rYqql6mrB6qp5cM1VPQlCxAEGlOaLyZHX/XiQuBPWUC9P01Nquh6fXTVNoWD9Nw9ZP17AN7cMzG2YoYdg4Q8+EhGc3ztCzm8LDc5tnKiw8v/lDPb95VlLhhS2z9UJRcuHFoo/0YnF4eKn4Y4WFiEeFV/VgeKUYz+nT0PBq6adKFIaXzVFYeK18rsIDHlV4eL1inpINIyozFBZGVmUk8KgyE3hU8zvwqLI0pjZBqGNk3D6MrctO4Gkl8sAi18dhwCwMHgzqIKRA8H0bIC2IywXuNeTKDVhqs/VGQ4F+UbdA/9jxvQpOVumArrrHLsJ5uBf5+Q8/FXJrCDDYwRDnefmvzqxHjHuPEFrvEFUb+6C36W48UfmKc6ZFLbS5TXhR13RTO5tPKXvfJk1aN0fPrpqmR9dO1WNr8ZAiBAVJQVpPrIlcC5JRlz6vnaqn8cKSCeumaRhThiHhmfUzFBo2zNCzG2YmFzbO0HObEoSERAVJzU4qOKLa8pFeSCK8WPSxwkKEoD7RS8XtQzxB+e8dE9UcvVraPgwvhaSY4msfEpFRouuvl6cnT1IV80JJCuIaSQiZ/htVlTxRjamBpO6PfIOfw6f9OiajRGlixsobMzsPHsLqal825GpsQ7bG1GdpXEOORtbM16TqXP1l27f64mSN9reyyN0vceMNFtHD23C+8tnb8uh1f8nFjl7zSbtz7h2iir6aA48qVuHA1Gesca1wVZsuqllbW0/rk6aVGr9khp5fFlko8Z+FU/QIZMV0HuS0ZqoeL5waI7AukVPM64p4VEmRFIRmRBVKUhCXEZURlXllA9MzHV+Pd8XAaL7GQ1p8r87WL6oL9MeKRfrscIX2t17UNfHToMAy9gA/dcpDnUboOnX1ClHhJUXeIXW/pnyClR0z88WFNvdjtJ2t5zVzX6EmFn6q55dO0bOFM/TY6il6bP10Pb52miMnvCpICg/rkXVT9ei64NRfFz+bRyXzqMyjMo9qYJJLTw4KJtTnajxTyTWZYvp4XCOLMPI1sb7ALXP/feViFfxQrX266sjK/UA4as69Lcffwp5HLz/glETse9eJqLOYvUJUkTdLRZ5TUQHfsFijXMsiq/sOt1zSwsPlemHFNA1bkaZha/BiZuiJwihB8TwqGoJEBWGZR2VTf4mm+BJdt6m/wHOKrk4TWbxBNzUIUU2sy9EYFuTUzNfoWhbk5LowcesiTaop0O9qv9A3Z5p0QjfdfkCekrw99zsIOefDG3oe6RDBh84YqIv3e4WooCjfKOpB3e9vicQFnl+xBP22lhyv1a82zNfjq9L06Kopeozl5mtYyTdNT66coqeiCyjc86nA9B8elhGVEVUiQkp03YjKiKonPZMBm1dttibUZmlcfY6b9mMV6Nj6PI2uz9OorQUas3WhxlTn6Z8N32ntuZ262MZGTDFKchYem+69Ksc3mH2/moLPPXj0ClE5knKbx0boiua5JvqGtLWKffcqrh/Rn8oW6bmlaXocDwoi4vdQK6e44Ff5QVI+sJjCBcgsWbLqaOov0eq+nn5GtXGmng0NCRZSsMBiAC6mcIsmWOEXFhKu+mu/kILFFX21mGIEiyYShUSr/lJ4MUVslZdf7RU8m5c06LykpEizNlvjarM1ludTbtov8jsrfms1rqkg8sPh2lz9v8oFSqv/XpVXD+my28PiQfbxJt1d9V8gq7Bpwcjlh/rfO0TltkCKOFXUGZJydXdfaE2LDrde1Lx9m/TSqhmRZ0/8WDf6w90nV6XpKR8CJOXJyi1Vh7B6kKjCVvV1di10xR8rATta9bfxQz0bGmYOmlV/rPBLtAS9o+thK/76nKgSEFLY0vRUX/XHaDkp42XkNeTwGtOQKwJyMqE2V5NqczWxPl/j6vI0ujZHP6/J12/L81VwqkKHdTVix6EaT0pB2vHXokTF1GD0YzDWQ33uHaKidlQ64Am6L6zLb23VDd3Vpot79ctNmfrJ8vf0+KYZEU/K7zARPTviik73seLPTQkGiMuIKjWn/oyoMpUKy9ONpGzRREcyMLY+QlKcx9dFSOqNGvaOzNaEmhyNq8nWG7V5+llljv6y81ttuX7I7Q3oTDv/8ECidj52LWD7+e2Vm0mLUEG3/vcOUUUr74nqfiNYDXhPR3VFn+ws1LAl7+snq9/XYxumxbZBgpzYBumxaGABBc+jPFF5snqqh6f+OvOewu6bR8US9fDfUHXkOSW6Zx5Vz/6OqiMjZfeGNok5kqpnWXrkR8J4UxNdyNH4mmxNYJq4er4m1udqEgsvanOUe7xCJ3VLtz07xabKYnwVcaGi9j/lPaoAT913/aJsdU3N2nLtoH5TlKNHl7+np9ZP1WOrPxDTfTyfgqAeLUzTI4WRsyMqSMnvSIGHFSUv86jMo0q0aCLR9Y4WU7jnU4Nq6m9oG2Mj48T9770pPCkIahKbJLOzBcTVkOt+WzXO/cYqRxO25ml0Y7be37VSVddO6JJaInY9QFSxKT7sfJQAAg5Xt7wpEve4R0UdWQniPcBond0Fmvejbilj/2YNXzlTjxdO0bBVk/X08vZEBVlBWk8y1bdqqp6JbqHkdqYwonILLCLbJ6XezhQDcuqvPD2ykOJhiCpkQUVs6o8dKvwuFdHPo6sD2yjx2Qd2pkiwOwV7tSXaaSLRdTPUiQ31UMcGoiJAUm/U5LjA95FNORrRlK1RTTlu54px9fzGKkdjtubqrdov9O2JrTqlu+It7MGpvxgpDUSiitEolW9lq6QWHdI1/aXqcz219AM9vn6qnljyjp5dMTnmUT0w7cdO6NF9/iAqFlEYUd3f9+/hiWp29Ie/XTuz199L7EQRH4o/breXX2yrpAQr+xJN+3G9L6b+nKdVka7XfKiM7vtXnq6R5fM0qjxDIyvYcSKyW7r7XJGhURUZGlOeoTFl89z916syNLwqsv+f30ZpRFWm2Ix2VGWmRhM8SbHFUk2mRnKvKjNCTNENZfkNyyiu81sWR1T8CDNbY6OBz/zGhR2wg8H9SNOv3Eqws/pQN8bW/s6JOuJN5TiPCqIa0ZSj4Q3zNaIxS+Ob8jS2LkujajM1ujFHP6/I06cHinVAN3QDtynqjbS5LfNijlTM7HtnJXahGx963KO6X5cotfIWyVZ2n20Rr4cvunlYY1bN1pMr2A19qp5Y8YGeLZymJ/Ge3C7okdd18MoOfy30HN0pPanpvw6Wp4c9g+rs2sB8RjVLLxR1PUReCxJOVC8XDTyiGs6u6jXz9Gr1PL1UMVevVmfo1Yp0jShL15jSDI0ry3TvnRpdla3RNbkawzuoKrI0vmK+3izL1i9LeV9VpobXZur5eshqnphOxCt6tWqeRjflOUKbUJ2lSQ25GlWRrpFV85ziv1adrlGVhHkaWZup15vYRT1Tr1em6/WqdI1yRJWr8TW8Ryrfvc9qVBU7pOe4DUTZRJQwip3P63jgnaXxHXhaZqg7N9RDHSOm/nwAi4inFfltVWTVKCtHI2FSbZ7+0PCVNl85oCvMmwWYyPkibiYtsisR2+fFvKz7pPDQn3qHqKg1jMsydU9UatE53dK3J+s0fPl09zupR9el6clVkzVsdSekFEZaRlTRXdOTnfrrOklBaA9DVB1tPNv/HhW7rc/RqMoMjcZzKpmrMUVz9Lv6RXpn+xKl7ViuKU1L9X7DEk3ZulzTd6zW+ztX6L8bFutP5QuUdaJUHxxao/FV2Xq1Bu8oS6+XpmsM5+r5Glk9X/9Vmad39izTzB826O87v9Wk0gyNqp3vtqoZU5Gh8VXz9Xr5XL1SO0+j67OdNzW8NkMj2B2gJk9ja/I0pjpXI6uzNLwmS69Fycntdl0XISuIajw/2DSiGnJLyvuLXMfX5uo39Yu18sx2tz+rexblbH3Em2KjB3YlgqQIAR57aILyCXuPqNwPfqNE1UaVW3RK1zWnabVeWjrVrfJ7pHCynlo1WU+tnNyx92REFfqj34eb+hvaRPV62VyNLJursWXpmliWqUlF8/TbyjzNOVWkDa1HVKvT2t5yWjvv/aid985oW+sZFeuE5l6sUsa+jarVGS29uUe/qSjQyJJ5Glc2XxOrct0bVF8pnqPxVTn65GSxVtzZpzW39ujLy436c93nGlORqfHV2ZpQMV8/rcrRG3V5GlmX7XZf57nUyMYcjeSliZU5GleZGyGqhly9vi1frzZGvCieRfG+Ic4QFdMyHb3mo78MmpU7SD252hz9V+1CfX64Qud0+4G5vsj8WWTbPL/Pa5TDPNd069x7ROXp1hFWq9sr6piu6u1NC/TCssj03n8WTtaTKyfrqRUfGFFt7Ksf/A5touLZ1IjaDPduqxElczWyeI7GlszTn/ct0YxD65Sxb4O2XNyt/bqqjed2KXvvZs0+tEm/3/aNZtYv0w5dUOHl3fpLyWf6VUWBflW5QOOL52tEKZt75uundQv1wfblLu708q8178BG/a3xa42rjbx+/pc1Bfp11QL9vCxHb1Tn6be1n+nXlfkaV5qpN4rn6zdFeXqrdKF+U7nQvUZ+bFOBXq6cp3G1OZpYk6OJ1Tnus/PEGrI0pj7xIgsjjEFKGP30w+yxtTn6WU2B5m1f515uC/NARrghkRAhKr/Xa7eYKS5x7xNVtCnsE8VLEd9ameE2oH1szRQ9sm6KHlv+noatsqk/tlXqm/dRGVENr+bV9XPc4onRVfP1avGn7jnTT0vm6/dbcvXt8Spt1yUtPlyu3xXl65eleZpYkq1Pm9Zony6p/tYP+uxQuRacq1fO6Wq9v2OlflGWp59W5utnpXmatXW1vjxSqeWnGrTkxwZN275Sk8qy9f+qFmju6TIVnK1R5okyFVxr0reXt2neznUuTt7pKn1zcZu+Ol2vadtWaOLmeRpXlaPRNdmOoCbikdXkCIMBUY1syHJnW/VnhNQXg5Ix7kfB+ZpW/b2O63qMpHgWRYCg/PQf5548eoeo3ORkxBmEc/Gn7qhF25t/1G+WzdGLq2bo0dWT9eiGqXrk+38/sJgidOGETf3Z1F/ISxN5kWKi30slvj5Xr1fM1YjSuZHnU9Xz3WvpX6rkWrreLM7WouMVqtNFzT9aqokVuRpZlqUJJTn6uGaFjrRc0tF7l1R58aDWnt+tnbqssrsn9EHN9/rtpjxN37te9W1nVX/7pDad3aVduqCi20f07vblerfyaxXfOarduqyKm0e19tJu7Wn+UUebz2n7zRMqvrxfW24e0l5d0fore/WnykX6RWWeJtTkalJVxKOKTPtFiGqUEZU9n+pD72p0A/sBFujfpV/qYOtlR06epIJEFSGpgUBUro7tiar+xnH9evkcPb9ymh6JEtVTq6foaXtG5Taq7U+PikUTLxbNDg0vJVienmjVX6ovpni9cq5bzPB6KaQ1T69WztNL1eluUcQvNmdq4cFiNemCsvZv0cSSLL1eNl+jS7M1o2659umymppPa17taqWVfavNF/c772v+rk16t+o7rbl3VHt0Scv3VmpuxTKt/2Gr9uiaPjvXqMklX6ni5jHt0RXl7dikKTVLtOpYg47rhiquHNbsuhWa3LhM9Tqjav2ot7ct0S9qCjS6KiviSdXlaERDZJk6v6saV2vPqPrCk7AyIh7r6IY8TWxcoHfLvtKuW2fc72WDO6jfJ6io7e9BruodjypKVL7i3qPyRPXM8jRHVI+sT9PTbCxrRJUaRFU8Wy/Gh6LZGmxE9VrF3OjvqObptYp5eqUKoponloL/ujxfiw+XapsuqOBgid6sWqDRVbkaW5WnmdtWO1Lacvuo/lXyhf53ywKt+HGbduiSFu0v04zaZSrXWR3XNVVdPKRl53ao4soR7dN1fXtll2aWL1HljWPaqouaWvW9fltcoAX7S7VbV7T8zHb9tXSx3qperBqdceHvjd/oZ9V5mtS00C2iYFn68KbIqj+2uZlYY8vTjUT6btpzTEOe86jeLf/6AaLyXpW3934NYE/O/vUOUbnJSaodYVYm/5rVoh3NP+p3K9L1zNLJenTNFP1kfZqeYHm623A2yedUtjy9R5enO48qnqT4PgiJiqm/4ZXpzpMaXhklqpp5ernkU/28NFsFh0vUqAvKO1Csn5Xl6dUtczWqOEPTt65Ugy5o2Z0D+l35Qr1RlKXPz9S7a/l7i/TpjrWq1jmdaL2s2mtHteLuYRXfPKqS28eVf6FRsxpXq7T5B1Xrov5Zt0QTKvM153Cx6nVFi8416rclC/SL4hxVNB9Xo87onabv9EZplsbX5DiPCqJ6ZWuEqCbUZGtSNfdsMYWRVd+QFUQ1viZX75d/rYMtbKQUeTYVmfaDnqKelD+nvEcVR1Q8ZmMxxUFd0p/X5ujZpVP0WGGaI6pHV7yvYYEf/NozqpD3UvXo+6jCF1MMFaJiafq4krkaVZauEeXz3IIKznhWoysy9WZZjvIOFzuiyt1XpF+W52tcebZbDDG7aYW26bxW3N6n/ylfoDcr8vXVuQY16rwK9m7RrIblKm07oYM3Tumrpk16u/xLzdz8lebVrdafKr/QP4s/V8mdY6rRRf27cakmlOcq83CJtuqyvrqwVW+Vf6Y3S3JVceOItuuspuxcoTcrWUlYoDeqIoso8KjYoQKist9R9Y2BNiKM4MyLFfn5xfToYor7q/0iq/4GJFE9WGnWg7TouK7q/ZIv9OLyaXKr/jZM1U9WvOfeK9VlgvILK8yjMo/qIRZTjC6Zq59umavxxekaXTpPY0vSXeDzmJJ5erM0R3nHSiNeElN/ZXkaW5yp8UUZml23VDt1TmvvHNAfSgv08y2ZbuFFk85pwYEi/W1zvhadqtbRtguqu35E313eoeKrB7TlxiG9v79QH9R/r/KWE6rTBb1Xt0RjN89T7sFit7ji2zONequ4QL8qL1Dt7R+0ve2M3t2+VD8ty9bEKraviSxNH9EYWZ4OUY2py4r+niry26r41X9mYI3IelIG2LViUnWe5mwt1CndjC3q835UbMpvoHhUfsLPVdy9RBHubdFJXdfs+uUavvrDyKq/TdMcUT2x2n7w29/L04eKRzWCH/u6RRTp7tkUU394U25RRVm6fl63QJ8e26IinVLGwS36Ve0ivVqRoZeasvX29iUq0nF9cX2bfle3SONKM5R7rkobdFyzjm3UxNJMvVm/QNlHi7S2+aC26Kw23zmigpNVenP7l/rfbd9qWeshrWo7pr/tWKqJjZ9p1oENKtEpZf5Yqf+qXaQJdQu06vpebb53TH8+sFwTmxZqZE2WeyfQpOpst4USS9RZqj6m3oiqJw2x5RVC7IG3Qo+ty9Uv6z9T/oES/cgPftsdnrKiZ049dPTKMypf3ftExZVWndNNFezarNFrPtJjKyfrsc3T9ZPl7+rJVfd/8PsUG9F6ryn6+anVaXp69f3rTxSmiZDUPn8s2kjhvf6e28TvqBKFD/Xc5vYhsjMFr/roenhhy2y9UNQ+uBV/xR/pxfjgVvwlt9dfZ6v+XmUD2rBQ2hevop+rkeVz9Wplul6ujjyfcmRVGVn9N6oiU5M2petPtV/olxsyNKEiR6/WzNdLO3I1riTd7TLxq4pcjS6a4zae/UVplv67ZoEmlGVqVG2WRtZl6WfFGfpd5QK9VfWZ/li2UL8pzdcIniVVZOu/6z/X/zR8obHFGXqdF9NtztTfG77Rr2s+c/sKvlyWrr/Ufqm/NXztVvuNash1m99Oqo54VHhNEFXEo8KrsmdURjAhBNPJsnW8I/dm37rI6z14HxV7/o1lH8kGdk4nzxyNc0SFjGW73Vd+Xf+FvvuBJ7XNfr4vjoruW3/nWMXdfdivPU5UEUqKVsfXOXqRN/tWXjqknxem68mVafrJpmn6zyVv6/m1kU1pISgIyZFSlJj4/MyqND27MnImzmNrI6FPiGr9dA1bP6NdSLgh7UO+iv65TR8qcZil5za1D89v/lDPb0kuOKLa8pFeiAvskP5i0cehod2u6dFd1B9meXooQXWwc3rvvIo+3XlQeFHBwPuo2Ak9tvt5Zab77l45X81u6PM1pmq+O7tXd1Rluj3+xtZkuU1pR1WzE/p8jameL67xhlTC2Oosd519AbnOzuhuV/ToZxfHXYu8ONFvEsoS9DHRwI98XWCn9NjnxCQFoZkBT96ADxXM+E3UiKYIOb1RnaOfVee491GxS/rIrTkasy3Pvd6Dn0DwLHRsfZYmVuXp99XfqK75rK6zF4VfReHckAhv+edWmPyePPqOqNrkfvR7sO2y/lnxpZ5blqbHNvB6+cl6Zi3niMeE9+Q9Ku85uXvR61yDqB5f20ce1frp6pCUIKb4sGGGnt0wMzxs/FDPhoQISbUnozCC8tcGLFEl8Jz64jUfD/PiRP8aj5G8riMuxN41FSUpT1YdnXmdR1hI9C4qyCr++VNXvg8Vo2vtTJ6Q8aZGNUaIalJNjn6Kx14bzacpT+PwquqyNK4uSxMacjSuKVc/ryrQ1J3r3Ws+3Ft+A0TlHZQBQ1SwKJV1R9CjauOFim1ubjNnf5FGLJ+pJ9ZM0TMbZ+iJNZFnVBBUkKQgpEej3hPE9HhhNKxN0xNGVDKiSn5nCiOq5I2aEcHgwyzyOo8IUQXfSeVepNiQ714fgzc1gbf9Nua6N/z+tnaxPj8VeXEir5l3HlXAdfLm3pNVlAV65NTjHhW1itWdGvvau/dstemKmlV0cb/e2pirZ5en6ekN0/WT1e/f96iiz6e858SrQB6JBkgLsnIrBPvqGZV5VO1fmNjdqT/zqMyj6uQZipFj75Ij08s8l+L185w9WTEN+FNeS8++kvV5mtCUH9lXsma+3tm2XNW3TovNk5wzgkcVM/b3+YhL3vTfv9q9T31HVNF6suff0ZbLytixXqNWfKgnVqfpkahHFb9EPZ6s8LC4FnuOxQKJZMLDLKYwojKiCnnVvJ8CtKm/3jWoRli9gy/kxJQfROVIiw1no1OALNzhR+bjmwo0vrHAPYf9WW2+8o5V6gfd1B3YCTaCqIJcFXVKPFH1JFn1ElFFaxxfU9e+Nl1Xszad3qnfFGbq6eVT9MT66W4a0L/V100BRhdVQF54Ue65FF7UmsiiChZYJEVSD7vqz4jKiMqIyhZmDDIPcEItr5/PcSQ1LkpWk2py9UZ1riby4s7aXI3eWqCxdXmaVJmjv23/Tpsu7ddN9kh3L8OFqO7/WtYRF/aeEFhcARP0xNErRBWb74vyVayiMf5q1ZF7l5Sxfb1e+JrFFDP0WOGUCBmtm6on1uIppemZNVM1jOdWLEePPZdK07Or0vQMiyuS8aaMqNwKwZRY9WdTfzb1N8gM/0Dz/CbUsXgiW+N5GWdg+m9CbZ7YgYI3S4/e/pkmVufpzc1ZWvhDpY7qWmSmD08qOu2HSXfc5D8MSKKKMVT0g29MW5uuslT9yhG9tTFPz343WcM2zHALJ/7Pqvf0SOEU9/2ZwqmOkJ5eEyGvJ9ZN1ZNrp0YJLMlpPyMqI6rydPfeqeCS9OBnlqezFD0+2Kq/3pl+GmjGfTDVN0JQ2e63Unx2z6tY9VeXpxG1ORrVkK9Rdfn6RUmuZjStdK+tucZ+6RARJBVHSDGPKjorGL0dzwAP/b13PaoI/8YcrFhjWqW7atVZ3dF3J5r0y8IM5yUxxfd/Cz/Q/103WY+vjyxZf9p5VFP1+Lqpemz9VD22LkJQbtd186gG5u+ozKMyj8o8qn6eTs3R2HqI6j5ZQVJj6vM0Ag+raZEmlufrnZrvtPHCPl3QHd2Dnbw31Xr/MZUjJf4RokSFT9KTR68SFTv8uSPmSd1fBcilW2rVwbaryt9fogmrZum55ZPds6pH10/Vf675QI+vmaJ2RLX+ITwpT2i2mEI29Rf+Y188K/OozHMaTF5TR22J7EDhiSpCVkz5ja3P17iaPP2iokB/r/5GS4436HjbNTXHu1BuFXfAuQoQVZSvIkzWQ2zVO0TVxkM2tqGNI6rgCpHo5xtq0e67Z5W+Y7UmrZqtp79/T0zxsRSd31lBVHhPzqNaFznzbMo8KrZNSm4cpG+cAAAMCUlEQVRXCnaxMKIyourIgNm9oUHWnqjwqiKBrZPy3NTfpPJc/bF8sRYfrNChe5d0CzcKUx415/4ccK4euB8jqtiH7rNVrxEV3tRd3yIaSKvuP4OLNCzqPl7RHe24e0Jzdq/RuMLZbmUfv696kqXoa9Ii76vi91Nr09y1Z1bz7OohPKsOPKqn103T0+umtwvDEmyhFLatkr/2zIYZembDzNDA5rOJd6boaBul9vdSlaheLv5Ebr+/kHPCLZTC9v6LXhteOkehgd3TE4Xy9NDX1A/YH/yyO0VYYEulBMFIZ2iQTof97DeVjZtqjRFVQ7bGNuSILZX8ixHfqv9CC45Vas+dc7ouftobdZ/uP5pylt0TleOvAJFFTX3E5nty6yZX9Q5ROX8q3KOKkSwNiH5h7hPnsu7Wcc3eulJjV32kF1dO19Or0vQ0+wCunepWBT7ufm81Rc+y/x/L1/22S/FnP9UXf2Y1YaLgiAqyCgnrp+vpkBAhMfYCjAuOqCCr9iFCVJBVXNj0oZ5NIrDlktuMdsssPZ9EiGxI+5FeKGofXiz+WGEh0V5/XIeUkgmvlHyqZEPCrZXK5mh42dzQ8Fp54l0rXq/Aq2ofRlSymCI8jKzKUFgYVZ2pZMPomvlKFMbUst9fEsFtShvZNJSNQ4PBbSrKxqIWBjUGfoNZNpLlsycuVvONq42s6htfl6dIiPxualRDjoZvzdaorbka18BvqHL1X1UF+mPV51pwtELb7kb283OzYt5WxxEV5pvgjgAhxT7GjL2P9PDnXiKqh6sQKwH33r2gBQcq9D/FC/X8ihl6Yu10PbJ+mh7ZOFVPbJiqp9k6acX7emr5+xq2Kk3DVk1xwa0QLJzmlrMzLRgf/n97Z/7cxHnG8f+rnYQY8MHl2/ggITTQtNNppzP9sZl0CPEhfMqXbCPZJsk0ndCcBFu2Dku+JGGZgQBxSjmDjZ0WwhQbMMaxvp1nV6+8lp5NETVmMY+Yz7y77/vKXj5av4/e3XffVwWo12jkIEOGuwosA1VskKLARSMVTfHUYBvDdo8NLF4btnuPpkWWrxZZ/jqW7KF6cOQE6pETaGDZEWwECwUwZsLanYEG7Aw0suwKNiJddg83gceOPSM8uaPNYBlriS83z6TjzchjyA+1gKMg1IqCME9hpA3rRVGEZmDnKZ5wwAxtuQ9a8iMJs/qSb+7yhXQT7UTRGZdG8aRLv88UdaF8wgUabl5x2oWK+Dbt74t2o+CcC9lTTuSdd6I03InfDDu1hT+/uBLBHB6CbslQzygRdJ6uSV+3d1knUMWopxjDPH7C1dg9uG9P4XD4BEo/q8XOzyqR+XWVNvnrVm+NNpntK+4jyOjToeC1TQsoVcigQEYjAykY0chBA5S33V3FkjlQhcyBapaswRqweGqQ5bExmNQ3+zmDNcj22NImx3cUO3y1qfhrsdNfx7JrqB4sgXrsDjTwDDVgD0egAbmBRp5gE/LSZdiOPIb8ETvyR5pToLWlCkbNaEHhmBnNKBzj4OsXjbWgaLyVpTjUBo6ScBtKwjS7+pOzN9IOM0pPO8DTgbIJ4eV2QL0mVypRl/bALg2SKJlwonjiGIqjTpSe7cG+c72oiDrx+kgHfj/ag+aLfQjcvYTvY//BA218n2GcueoZPceoZZ1AFe9DUkIz89J6J5did9F7cQh/DnyI0k+PIuOv7+AXJ97RZrLY6rNhS997eFUbHXhY237l1GH88uS72NJ/BFvcNOPFEbxq4LX+I8j4+j2WrdrADRq8sZZt9ExX3/ssNOs7z/vYRsGTga9fiUw3UZUWWQPVyBpMJXuwGtkeCn6p5HhsYPHasMN7lGWXrxZm7PbXgWOPvw57hurXhdyheuRqQZEC41rygo3gyA82In+4iSfYhHwOs/rDdhSM8NDaVhwU3IrHW9OkDSXjPHtD7WAJO1DKEXFoE4uW0UOdwuZ2EOnUloinZeJLw13YG+5CSUSnMNSBYlprarIb5Wd6NCrOHsfBcDf+GHCiMvp3fDo3iSncwb+xiIfa1OE0eEDrOej3mahrpYLVuvWR0vtBlglUiWBNG3TvLraCRTzGbdzHN/dn8MnVMA6HPsEBdytyv7Qh+6tKUENNwYB6VlpQcOuXBrdROrBKxmAlCMqjMhYqG6hKYftgFbYPVrNkeqqR6alJIUvraVFvK5Vsrw0sPhuoh5QW2ii+WuT4U9EWQhyqA5fuHKpDCoE67ArUs+wONmBPWjQidzhdmpA3wpM/agdPMwrGTBhvQSGLvuaU9hAvTY1koIjWogq1sxSHHdqaU8lpScQBbXmOSEdKyg5+4AZExPP0RerUYnVr07LoMXCUTzphRlm0i30P93Mkj/f7Ynhxojzak6Asvl0x0YM3znyAN6PHcSDSi7fCPXg78gH+MPkxas+dxKnrp3Hh0QxmsYB7WMSSNnDiJ2CFnpcyBCoKUhKo9Ougy8k35rTIFdM6ofexjDk8wLmHs+ifu4DO8x68G/obDvrbUdHfgKIva1D4eRUKP69G0RfV+j7lEV/VoCBO/ska5J+ysRScOoqCPp7Cvlqk0F+LQo06FPavpchdB556FA/wlAw2YD3Z62kETxNKvTxlPjtS8NpR5rWj3JRmlHuT8DWjIm1asM/P8/pQK3ja8EbAjHbsD5oQcGA/R7AD+xneHO6EGQdGusDxq9FjeBreGnOC4+C4C2YcCnWD49ehHgib38GhUC8OhY6v4e3x4/jt2HH8brgHfxr9CH+JnEDj+X58eCOMvrtTOPtwBj9iAQt4hEd4jGWadUIbhr6iByo1n1+845Be/2f9a1uiR0Uu4ppWb94pQfGJbGlkIHVLaSj73ON7mFr6Af6la+i7N4WPpyNwXfKj89tBOC640Wag9aIbCvu3bjR8x9P4jwGkS9OlQawX9n96sK5c9sDO0HzZi+YrqbRc8aHlKsMVH1ovm9N2xYdU/Gi7mj7t14bA4bgWgOM6T8f1AHiC6LyRSsf1YTiuBVmozIzOGyN41nR9Pwozjt0cA4dzehym3BzHMWHTO3BOh+C6FUnQPRNB73QEH908jb4fv8PownWcXZzF5eU7Wu+J2lDqP9EDRImWN0bTIy0Dsfhlv9WWWNt63gMrLBGotPhrCEwGR4nQrIrp+SxaDYWC1l08wh0s4l94gLnYAuZW5jG7Mo9bRExnJjaPaQXmcVPATSw8MdNYADGzqZjHDNLl2Tu4hQUI4iDdc2AW9/EDtYF4gFk8wK04tH0bi9oagPfxGEva/Sd6eJeCURy6pqe2KY03vqvtrX6bas0Vr0SrvHEblg5UJCvlpQymFOiKqVhdUqWUvgkYMZbJ9lpXZj6U8s2R0pwp+tcd/Uk/GmsqiIMX9xzQ/opp8AMRf4ZVneGU0j+tdaRyuqRH958oVe9RqaoXD1eqPaD2UwIVE3CeKIvcGyMQbSuzKk1uWSk/+T2y/xI6oT9WumEsiINNcA4sx4Al0EzfiSt5icEP1AYaX8ltonHfWC++/T+KmXc8myxL9KhIxjJo4IT+vU7/FsCYoorqZTRozI+XJxdTjErOk/0nc6KUSyoGxIBFDajGzHB4Kkt9b1cp5WsvVUFlJO+rehZILRGoSCDNzktLf1AHfLW7GjekBP6MMFVFfRjJHSXqugpP54DrrCrPkqZ25MWJONnIcyC5rTP+vXJlqlzFp0SzqhpRlSYKnv+GJQKV/r3eqE83pV9d1QNX8gevqVNCVfozPqmKvP4PA8qxpE/WDRVP4mmjzgHuz1r9bkMZZVE7agxetE/5iZd635rMpDqJyhu3YZFARf9hpWzVlApUqzmr576mKLlg47y9fL8p2bXsr56M4kJcPM9zgGuN1PEklals9cVf7SdVs9yuhQKV5dzIAYkBMSAGxIAFDEigssCHIIcgBsSAGBAD5gYkUJm7kRIxIAbEgBiwgAEJVBb4EOQQxIAYEANiwNyABCpzN1IiBsSAGBADFjAggcoCH4IcghgQA2JADJgbkEBl7kZKxIAYEANiwAIGJFBZ4EOQQxADYkAMiAFzAxKozN1IiRgQA2JADFjAgAQqC3wIcghiQAyIATFgbkAClbkbKREDYkAMiAELGJBAZYEPQQ5BDIgBMSAGzA38F83MsTmMb5H6AAAAAElFTkSuQmCC;" vertex="1" parent="SRw-rdq7U9tqC3mMRgA0-20">
          <mxGeometry x="10" y="310" width="238.68" height="158" as="geometry" />
        </mxCell>
        <mxCell id="SRw-rdq7U9tqC3mMRgA0-33" value="&lt;font color=&quot;#666666&quot;&gt;1243c12939213&lt;/font&gt;" style="text;html=1;strokeColor=none;fillColor=none;align=left;verticalAlign=middle;whiteSpace=wrap;rounded=0;fontSize=18;" vertex="1" parent="SRw-rdq7U9tqC3mMRgA0-20">
          <mxGeometry x="19" y="325" width="131" height="20" as="geometry" />
        </mxCell>
        <mxCell id="SRw-rdq7U9tqC3mMRgA0-34" value="&lt;font color=&quot;#666666&quot;&gt;124345&lt;/font&gt;" style="text;html=1;strokeColor=none;fillColor=none;align=left;verticalAlign=middle;whiteSpace=wrap;rounded=0;fontSize=18;" vertex="1" parent="SRw-rdq7U9tqC3mMRgA0-20">
          <mxGeometry x="19" y="371" width="91" height="20" as="geometry" />
        </mxCell>
        <mxCell id="SRw-rdq7U9tqC3mMRgA0-35" value="&lt;font color=&quot;#666666&quot;&gt;1243&lt;/font&gt;" style="text;html=1;strokeColor=none;fillColor=none;align=left;verticalAlign=middle;whiteSpace=wrap;rounded=0;fontSize=18;" vertex="1" parent="SRw-rdq7U9tqC3mMRgA0-20">
          <mxGeometry x="140" y="371" width="91" height="20" as="geometry" />
        </mxCell>
        <mxCell id="SRw-rdq7U9tqC3mMRgA0-36" value="" style="shape=flexArrow;endArrow=classic;html=1;entryX=-0.005;entryY=0.466;entryDx=0;entryDy=0;entryPerimeter=0;fillColor=#f8cecc;strokeColor=none;" edge="1" parent="1" target="SRw-rdq7U9tqC3mMRgA0-23">
          <mxGeometry width="50" height="50" relative="1" as="geometry">
            <mxPoint x="720" y="710" as="sourcePoint" />
            <mxPoint x="464.89700000000016" y="612.8000000000002" as="targetPoint" />
          </mxGeometry>
        </mxCell>
        <mxCell id="SRw-rdq7U9tqC3mMRgA0-37" value="&lt;h1&gt;&lt;span style=&quot;font-weight: normal&quot;&gt;&lt;font style=&quot;font-size: 16px ; line-height: 70%&quot;&gt;Chờ thanh toán là một timer sẽ gọi api mỗi 5s để check status của transction&lt;/font&gt;&lt;/span&gt;&lt;/h1&gt;" style="text;html=1;strokeColor=none;fillColor=none;spacing=5;spacingTop=-20;whiteSpace=wrap;overflow=hidden;rounded=0;fontSize=18;fontColor=#4D4D4D;align=left;" vertex="1" parent="1">
          <mxGeometry x="440" y="420" width="320" height="120" as="geometry" />
        </mxCell>
        <mxCell id="SRw-rdq7U9tqC3mMRgA0-38" value="" style="shape=flexArrow;endArrow=classic;startArrow=classic;html=1;fontSize=18;fontColor=#B9E0A5;fillColor=#ffffff;" edge="1" parent="1" target="SRw-rdq7U9tqC3mMRgA0-8">
          <mxGeometry width="100" height="100" relative="1" as="geometry">
            <mxPoint x="576" y="1160" as="sourcePoint" />
            <mxPoint x="570" y="1180" as="targetPoint" />
          </mxGeometry>
        </mxCell>
        <mxCell id="SRw-rdq7U9tqC3mMRgA0-39" value="" style="group" vertex="1" connectable="0" parent="1">
          <mxGeometry x="450" y="1169" width="260" height="520" as="geometry" />
        </mxCell>
        <mxCell id="SRw-rdq7U9tqC3mMRgA0-40" value="&lt;font style=&quot;font-size: 10px&quot;&gt;&lt;font style=&quot;font-size: 10px&quot;&gt;Lưu ý: Mã QRcode chỉ tồn tại trong&amp;nbsp;&lt;/font&gt;1 ngày&lt;/font&gt;" style="text;html=1;strokeColor=none;fillColor=none;align=center;verticalAlign=middle;whiteSpace=wrap;rounded=0;fontSize=18;fontColor=#000000;" vertex="1" parent="SRw-rdq7U9tqC3mMRgA0-39">
          <mxGeometry x="21.5" y="198" width="220" height="20" as="geometry" />
        </mxCell>
        <mxCell id="SRw-rdq7U9tqC3mMRgA0-41" value="" style="shape=image;html=1;verticalAlign=top;verticalLabelPosition=bottom;labelBackgroundColor=#ffffff;imageAspect=0;aspect=fixed;image=https://cdn4.iconfinder.com/data/icons/hodgepodge-free/32/bitcoin_address_qr_code-128.png;rounded=1;fontSize=18;fontColor=#000000;strokeColor=#000000;" vertex="1" parent="SRw-rdq7U9tqC3mMRgA0-39">
          <mxGeometry x="67.5" y="224" width="128" height="128" as="geometry" />
        </mxCell>
        <mxCell id="SRw-rdq7U9tqC3mMRgA0-42" value="" style="rounded=0;whiteSpace=wrap;html=1;fontSize=18;fontColor=#000000;strokeColor=none;" vertex="1" parent="SRw-rdq7U9tqC3mMRgA0-39">
          <mxGeometry x="20" y="186" width="230" height="60" as="geometry" />
        </mxCell>
        <mxCell id="SRw-rdq7U9tqC3mMRgA0-43" value="" style="shape=image;verticalLabelPosition=bottom;labelBackgroundColor=#ffffff;verticalAlign=top;aspect=fixed;imageAspect=0;image=https://scontent.fsgn5-5.fna.fbcdn.net/v/t1.15752-9/178576172_322075259276850_1563151602902757826_n.jpg?_nc_cat=108&amp;ccb=1-3&amp;_nc_sid=ae9488&amp;_nc_ohc=aRAGJPIJW3gAX8qMFGl&amp;_nc_ht=scontent.fsgn5-5.fna&amp;uss=f4c936956c533fc1&amp;odm=cG5qZ3JvdXAud29ya3BsYWNlLmNvbQ&amp;oe2=60ACEE09&amp;oh=245c24979d003e99073ed17e1cbce9f4&amp;oe=60867599;" vertex="1" parent="SRw-rdq7U9tqC3mMRgA0-39">
          <mxGeometry x="10" width="243" height="520" as="geometry" />
        </mxCell>
        <mxCell id="SRw-rdq7U9tqC3mMRgA0-44" value="VPPAY QRCODE" style="text;html=1;strokeColor=none;fillColor=none;align=center;verticalAlign=middle;whiteSpace=wrap;rounded=0;fontSize=18;fontStyle=1" vertex="1" parent="SRw-rdq7U9tqC3mMRgA0-39">
          <mxGeometry y="80" width="190" height="20" as="geometry" />
        </mxCell>
        <mxCell id="SRw-rdq7U9tqC3mMRgA0-45" value="" style="rounded=0;whiteSpace=wrap;html=1;fontSize=18;strokeColor=none;" vertex="1" parent="SRw-rdq7U9tqC3mMRgA0-39">
          <mxGeometry x="10" y="160" width="240" height="330" as="geometry" />
        </mxCell>
        <mxCell id="SRw-rdq7U9tqC3mMRgA0-46" value="" style="group" vertex="1" connectable="0" parent="SRw-rdq7U9tqC3mMRgA0-39">
          <mxGeometry x="20" y="160" width="240" height="350" as="geometry" />
        </mxCell>
        <mxCell id="SRw-rdq7U9tqC3mMRgA0-47" value="" style="rounded=1;whiteSpace=wrap;html=1;fontSize=18;fontColor=#000000;" vertex="1" parent="SRw-rdq7U9tqC3mMRgA0-46">
          <mxGeometry width="100" height="30" as="geometry" />
        </mxCell>
        <mxCell id="SRw-rdq7U9tqC3mMRgA0-48" value="" style="rounded=1;whiteSpace=wrap;html=1;fontSize=18;fillColor=#dae8fc;strokeColor=#6c8ebf;" vertex="1" parent="SRw-rdq7U9tqC3mMRgA0-46">
          <mxGeometry x="120" width="100" height="30" as="geometry" />
        </mxCell>
        <mxCell id="SRw-rdq7U9tqC3mMRgA0-49" value="Tự nhập" style="text;html=1;strokeColor=none;fillColor=none;align=center;verticalAlign=middle;whiteSpace=wrap;rounded=0;fontSize=18;fontColor=#000000;" vertex="1" parent="SRw-rdq7U9tqC3mMRgA0-46">
          <mxGeometry y="7" width="100" height="16" as="geometry" />
        </mxCell>
        <mxCell id="SRw-rdq7U9tqC3mMRgA0-50" value="&lt;font style=&quot;font-size: 14px&quot;&gt;Thanh toán QR&lt;/font&gt;" style="text;html=1;strokeColor=none;fillColor=none;align=center;verticalAlign=middle;whiteSpace=wrap;rounded=0;fontSize=18;fontColor=#000000;" vertex="1" parent="SRw-rdq7U9tqC3mMRgA0-46">
          <mxGeometry x="120" y="5" width="100" height="20" as="geometry" />
        </mxCell>
        <mxCell id="SRw-rdq7U9tqC3mMRgA0-51" value="" style="rounded=0;whiteSpace=wrap;html=1;fontSize=18;fontColor=#000000;strokeColor=#000000;gradientColor=none;align=left;opacity=20;fillColor=#000000;" vertex="1" parent="SRw-rdq7U9tqC3mMRgA0-46">
          <mxGeometry x="-10" y="-160" width="250" height="510" as="geometry" />
        </mxCell>
        <mxCell id="SRw-rdq7U9tqC3mMRgA0-52" value="" style="group" vertex="1" connectable="0" parent="SRw-rdq7U9tqC3mMRgA0-46">
          <mxGeometry x="10" y="7" width="210" height="210" as="geometry" />
        </mxCell>
        <mxCell id="SRw-rdq7U9tqC3mMRgA0-53" value="" style="whiteSpace=wrap;html=1;aspect=fixed;rounded=0;fontSize=18;fontColor=#B9E0A5;strokeColor=#000000;align=left;fillColor=#FFFFFF;" vertex="1" parent="SRw-rdq7U9tqC3mMRgA0-52">
          <mxGeometry width="210" height="210" as="geometry" />
        </mxCell>
        <mxCell id="SRw-rdq7U9tqC3mMRgA0-54" value="" style="group" vertex="1" connectable="0" parent="SRw-rdq7U9tqC3mMRgA0-52">
          <mxGeometry x="5" y="20" width="200" height="170" as="geometry" />
        </mxCell>
        <mxCell id="SRw-rdq7U9tqC3mMRgA0-55" value="&lt;font style=&quot;font-size: 14px&quot;&gt;Mã QR đã hết hạn v.v&lt;/font&gt;" style="text;html=1;strokeColor=none;fillColor=none;align=center;verticalAlign=middle;whiteSpace=wrap;rounded=0;fontSize=18;fontColor=#000000;" vertex="1" parent="SRw-rdq7U9tqC3mMRgA0-54">
          <mxGeometry x="15" y="48" width="170" height="20" as="geometry" />
        </mxCell>
        <mxCell id="SRw-rdq7U9tqC3mMRgA0-56" value="Lỗi" style="text;html=1;strokeColor=none;fillColor=none;align=center;verticalAlign=middle;whiteSpace=wrap;rounded=0;fontSize=18;" vertex="1" parent="SRw-rdq7U9tqC3mMRgA0-54">
          <mxGeometry x="33.25" width="133.5" height="20" as="geometry" />
        </mxCell>
        <mxCell id="SRw-rdq7U9tqC3mMRgA0-57" value="Thử lại" style="rounded=1;whiteSpace=wrap;html=1;fontSize=18;fontColor=#4D4D4D;align=center;strokeColor=none;fillColor=#D5E8D4;" vertex="1" parent="SRw-rdq7U9tqC3mMRgA0-54">
          <mxGeometry y="140" width="200" height="30" as="geometry" />
        </mxCell>
        <mxCell id="SRw-rdq7U9tqC3mMRgA0-58" value="" style="html=1;verticalLabelPosition=bottom;labelBackgroundColor=#ffffff;verticalAlign=top;shadow=0;dashed=0;strokeWidth=2;shape=mxgraph.ios7.misc.loading_circle;rounded=1;fontSize=18;fontColor=#000000;" vertex="1" parent="SRw-rdq7U9tqC3mMRgA0-39">
          <mxGeometry x="120" y="383" width="20" height="20" as="geometry" />
        </mxCell>
        <mxCell id="SRw-rdq7U9tqC3mMRgA0-59" value="Chờ thanh toán" style="text;html=1;strokeColor=none;fillColor=none;align=center;verticalAlign=middle;whiteSpace=wrap;rounded=0;fontSize=18;fontColor=#000000;" vertex="1" parent="SRw-rdq7U9tqC3mMRgA0-39">
          <mxGeometry x="61.5" y="411" width="140" height="20" as="geometry" />
        </mxCell>
        <mxCell id="SRw-rdq7U9tqC3mMRgA0-60" value="Kiểm tra" style="rounded=1;whiteSpace=wrap;html=1;fontSize=18;fontColor=#4D4D4D;align=center;strokeColor=none;fillColor=#D5E8D4;" vertex="1" parent="SRw-rdq7U9tqC3mMRgA0-39">
          <mxGeometry x="26.5" y="442" width="200" height="30" as="geometry" />
        </mxCell>
        <mxCell id="SRw-rdq7U9tqC3mMRgA0-61" value="&lt;h1&gt;&lt;span style=&quot;font-weight: 400&quot;&gt;&lt;font style=&quot;font-size: 16px&quot;&gt;Tự fill mã chuẩn chỉ + số thẻ đầu + cuối sau khi thanh toán thành công&lt;/font&gt;&lt;/span&gt;&lt;/h1&gt;" style="text;html=1;strokeColor=none;fillColor=none;spacing=5;spacingTop=-20;whiteSpace=wrap;overflow=hidden;rounded=0;fontSize=18;fontColor=#4D4D4D;align=center;" vertex="1" parent="1">
          <mxGeometry x="839.34" y="425" width="320" height="90" as="geometry" />
        </mxCell>
      </root>
    </mxGraphModel>
  </diagram>
</mxfile>
